<svg xmlns="http://www.w3.org/2000/svg" xmlns:xlink="http://www.w3.org/1999/xlink" viewBox="0 0 257.39 158.71"><defs><style>.cls-1,.cls-2{fill:#1b75bc;}.cls-1{opacity:0.53;}.cls-2,.cls-5{stroke:#d0edf4;}.cls-2,.cls-5,.cls-6{stroke-miterlimit:10;}.cls-2{stroke-width:1.65px;}.cls-3{fill:url(#linear-gradient);}.cls-4{fill:url(#linear-gradient-2);}.cls-5,.cls-6{stroke-width:1.5px;}.cls-5{fill:url(#linear-gradient-3);}.cls-6{stroke:#addee0;fill:url(#linear-gradient-4);}.cls-7{fill:url(#linear-gradient-5);}.cls-8{fill:url(#linear-gradient-6);}.cls-9{fill:url(#linear-gradient-7);}.cls-10{fill:url(#linear-gradient-8);}.cls-11{fill:#00c0e8;}</style><linearGradient id="linear-gradient" x1="279.85" y1="195.45" x2="224.56" y2="194.94" gradientTransform="matrix(0.93, -0.37, 0.37, 0.93, -123.71, 65.35)" gradientUnits="userSpaceOnUse"><stop offset="0" stop-color="#27aae1"/><stop offset="1" stop-color="#93d7e6"/></linearGradient><linearGradient id="linear-gradient-2" x1="286.19" y1="190.45" x2="311.65" y2="71.99" gradientTransform="matrix(0.93, -0.37, 0.37, 0.93, -123.71, 65.35)" gradientUnits="userSpaceOnUse"><stop offset="0" stop-color="#c0e5e7"/><stop offset="0.03" stop-color="#b4dee4"/><stop offset="0.16" stop-color="#85c1d7"/><stop offset="0.29" stop-color="#5ca9cc"/><stop offset="0.42" stop-color="#3b95c4"/><stop offset="0.55" stop-color="#2186bd"/><stop offset="0.69" stop-color="#0e7bb8"/><stop offset="0.84" stop-color="#0474b5"/><stop offset="1" stop-color="#0072b4"/></linearGradient><linearGradient id="linear-gradient-3" x1="227.92" y1="132.28" x2="319.98" y2="132.28" gradientTransform="matrix(0.93, -0.37, 0.37, 0.93, -123.71, 65.35)" gradientUnits="userSpaceOnUse"><stop offset="0" stop-color="#0ebbd6"/><stop offset="0.04" stop-color="#00c2f3"/><stop offset="1" stop-color="#93d7e6"/></linearGradient><linearGradient id="linear-gradient-4" x1="244.74" y1="182.17" x2="266.99" y2="78.61" gradientTransform="matrix(0.93, -0.37, 0.37, 0.93, -123.71, 65.35)" gradientUnits="userSpaceOnUse"><stop offset="0" stop-color="#c0e5e7"/><stop offset="0.03" stop-color="#b6e1e6"/><stop offset="0.18" stop-color="#8ed3e3"/><stop offset="0.33" stop-color="#6dc7e1"/><stop offset="0.49" stop-color="#53bedf"/><stop offset="0.65" stop-color="#40b7de"/><stop offset="0.81" stop-color="#36b3dd"/><stop offset="1" stop-color="#32b2dd"/></linearGradient><linearGradient id="linear-gradient-5" x1="220.17" y1="136.07" x2="291.55" y2="136.07" xlink:href="#linear-gradient-2"/><linearGradient id="linear-gradient-6" x1="248.81" y1="137.51" x2="281.47" y2="137.51" gradientTransform="matrix(0.93, -0.37, 0.37, 0.93, -123.71, 65.35)" gradientUnits="userSpaceOnUse"><stop offset="0" stop-color="#00c0e8"/><stop offset="1" stop-color="#93d7e6"/></linearGradient><linearGradient id="linear-gradient-7" x1="102.13" y1="85.38" x2="122.96" y2="85.38" gradientTransform="matrix(1, 0, 0, 1, 0, 0)" xlink:href="#linear-gradient-6"/><linearGradient id="linear-gradient-8" x1="166.82" y1="101.61" x2="257.39" y2="101.61" gradientTransform="matrix(1, 0, 0, 1, 0, 0)" xlink:href="#linear-gradient-2"/></defs><title>3FC Wave_1</title><g id="Layer_2" data-name="Layer 2"><g id="Layer_1-2" data-name="Layer 1"><g id="Layer_1-3" data-name="Layer_1"><g id="_560697312" data-name=" 560697312"><path class="cls-1" d="M137.77,121.82c-11.82-4.89-36.24-16.48-44.92-26.61L60,85.14l19.6-1A323.74,323.74,0,0,1,24.47,39.8C46.61,92.18,88,136.37,145.33,147.33c7.88,1.51,16.74-.42,23.76-4.11a118.39,118.39,0,0,0,14.1-8.74A206.57,206.57,0,0,1,137.77,121.82Z"/><path class="cls-2" d="M2.25,1.16S-1.31,3,2.83,14.74,15.27,50,15.27,50c-12.23,29-.7,43.73,6.55,59.72l10.1-19L33,121.9c24.26,26.59,83.49,44,116.46,30.22C65.93,140.85,26.93,67.58,2.25,1.16Z"/></g></g><path class="cls-3" d="M159.49,157.66s11.42-4.06,29.06-5.28,35.09-11.43,40.87-17.89a173.26,173.26,0,0,0,12.34-16.39s-10.17,22.8-31.38,33.56S159.49,157.66,159.49,157.66Z"/><path class="cls-4" d="M184,148.44s49.08-9.11,51.4-53.93C237.59,52,205,22.13,183.9,21.51s-17.58,13.15-17.58,13.15,37.7-.92,54.25,34.51C247.77,127.43,184,148.44,184,148.44Z"/><path class="cls-5" d="M156.91,151.5s27.53,5.38,55.83-19.63C245.21,103.18,224.82,48.4,187,36.76S135,38.87,133.32,42.31a8.63,8.63,0,0,0-.45,6.6S176,42.29,201.1,69.52s11.27,62.83-12.61,74C171.08,151.64,156.91,151.5,156.91,151.5Z"/><path class="cls-6" d="M156.91,151.5s35.57-4.48,46.47-27.39-4.44-59.95-39-61.72-53.06,17.41-57.9,10.39-5.8-23.86,34.68-28.85,68.53,13.17,75,44.62S200.22,151.22,156.91,151.5Z"/><path class="cls-7" d="M201.48,119.66S212.89,94.16,188,74.8s-61.73-6-65.19,1.89c-5.73,13,8.69,22.18,20.06,12.91s30.58-14.29,43.41-6.82C206.79,94.71,201.48,119.66,201.48,119.66Z"/><path class="cls-8" d="M193.46,99.13a24,24,0,0,0-16.07-14.95c-12.78-3.76-21,2.73-21.71,6.44S159.1,100.78,170,95,190.42,94.31,193.46,99.13Z"/><path class="cls-9" d="M123,73.5s-6.49,5.37-5.87,12-.56,9.16-7.2,11.43S98.1,89.45,106.5,82.07A37.34,37.34,0,0,1,123,73.5Z"/><path class="cls-10" d="M166.82,152.44a104.48,104.48,0,0,0,47.91-10.2c24.34-11.85,32.17-36.67,35.19-52.32s2.85-25.61,6.54-31.77-4.34-10.75-12.62-4.38-4.89,21.9-6.26,36.88c-1.24,13.52-4.85,32.31-24.8,46.43C193.33,150.84,166.82,152.44,166.82,152.44Z"/><path class="cls-11" d="M234.47,59.48a16.83,16.83,0,0,1,2.09-9.78c2.82-5.26,2.89-11.2-2.1-11.66S223.68,46.39,234.47,59.48Z"/></g></g></svg>