<svg xmlns="http://www.w3.org/2000/svg" viewBox="0 0 293.42 66.39"><defs><style>.cls-1{fill:#fdfdfd;}.cls-2{fill:#fbfbfb;}.cls-3{fill:#121212;}.cls-4{fill:#849e3d;}.cls-5{fill:#b1c184;}.cls-6{fill:#aeaeae;}.cls-7{fill:#cacaca;}.cls-8{fill:#c2c2c2;}.cls-9{fill:#434343;}.cls-10{fill:#6c6c6c;}.cls-11{fill:#959595;}.cls-12{fill:#0c0c0c;}.cls-13{fill:#060606;}.cls-14{fill:#727272;}.cls-15{fill:#171717;}.cls-16{fill:#ececec;}</style></defs><title>MTL Logo</title><g id="Layer_2" data-name="Layer 2"><g id="Layer_1-2" data-name="Layer 1"><path class="cls-1" d="M24.4,66.36c-7.75,0-15.5,0-23.25,0-.93,0-1-.28-1-1.07Q.19,37.15.16,9c.38-.07.72.13.7.47-.07,1.27.68,2.28,1.06,3.4a17.49,17.49,0,0,0,4.27,7.2c2.56,2.45,5.51,3.46,8.94,1.77a1.52,1.52,0,0,1,1.67.28A24.3,24.3,0,0,0,19.4,24c.75.39,1.47.61,1.9-.35s-.09-1.36-1-1.68c-2.5-.93-2.94-1.68-2.71-4.3,0-.12,0-.24,0-.36.26-4.28-2.12-7-5.48-9.07A28.27,28.27,0,0,0,6.93,6,10.26,10.26,0,0,1,2.8,3.65,3.21,3.21,0,0,0,.16,2.52C.16,1.72-.15.61.25.21S1.76.12,2.56.12q144.9,0,289.8,0c.9,0,1.11.2,1.1,1.1q0,22.38,0,44.76c-.49.16-.68-.36-1.05-.47L292.3,45c.19-.34,0-.46-.3-.51h0c-.2-.7-.2-1.54-1.2-1.68-.18-.09-.29-.34-.56-.23l-.2-.55c.51-.8-.22-.77-.63-1a5.37,5.37,0,0,0-3.59-2c-.1,0-.2.1-.3.16l-1.18-.08a2.5,2.5,0,0,0-2.68,0l-.94.07c-1.41-.39-2.35.49-3.35,1.22l-.22.11c-.34-.09-.46.09-.49.38l-.24.12a1.4,1.4,0,0,0-1.16.49,11.59,11.59,0,0,0-4.19,7.66c-.36,3.1-.72,6.34.61,9.44.35.83.77,1.63,1.14,2.45a10.46,10.46,0,0,0,3.12,3.63c.7.57,1.88.52,2.14,1.64h-9.84c-.18-.52.88-.85.21-1.44V64.2c.23-.94,0-1.18-.94-.94h-1c-.16-.28-.32-.27-.48,0a.89.89,0,0,1-.89-.63,2.63,2.63,0,0,0,.17-1.41c0-5.64,0-11.28,0-16.92a3.37,3.37,0,0,1,.28-1.63l4-.06c.28.34.56.21.78,0a.42.42,0,0,0-.06-.7v-1.2c.49-.85-.16-1.06-.74-1.16a12,12,0,0,0-1.9,0c-2.26,0-2.26,0-2.19-2.17V37a23.33,23.33,0,0,1,.26-5.41h0c.63,0,.72-.44.75-.92l.35-.18a2.41,2.41,0,0,0,2.07-.73h.88a2.46,2.46,0,0,0,1.72.88h0c0,.33,0,.63.38.76,0,.55,0,1.1.07,1.64-.39.56.13.73.44.86,1.82.77,3.16-.12,3.16-2.08V30.71a3.84,3.84,0,0,0-5-3.48h-2.4c-1.71-.68-2.93.44-4.17,1.25-.45.3-1.15.64-1.06,1.44-.94,1.1-1.18,2.52-1.74,3.79-.24,0-.45.1-.43.4s.19.29.38.33c0,1.31,0,2.63,0,3.95s-.38,1.55-1.67,1.36a1.53,1.53,0,0,0-1.87,1.81c.2,1.18,1.11,1.3,2.09,1.24.8,0,1.48-.09,1.47,1.11,0,5.83,0,11.67,0,17.5,0,1.48-.36,1.8-1.82,1.83-.6,0-1.35-.24-1.55.68-.65.26-.4.81-.33,1.23s.51.71.39,1.2h-1.68a.81.81,0,0,1,0-.35c1-2.12.58-2.89-1.63-3-1,0-1.07-.56-1.06-1.33,0-3.88,0-7.76,0-11.64,0-3.2,0-6.4,0-9.6,0-1.09-.49-1.57-1.55-1.41q-2.65.39-5.29.88c-1,.18-1,1-1,1.79s.53,1.12,1.31,1c.32,0,.64,0,1,0,1.14-.15,1.54.31,1.53,1.48-.05,5.68,0,11.36,0,17,0,1.6-.1,1.75-1.68,1.73-.88,0-1.18.41-1.38,1.15s.37,1.44.38,2.19H245.2c-.1-.59.91-1,.24-1.68l0-1.9c.72-.33.42-1,.38-1.46-.11-1,.46-2-.37-2.9l0-.46a.34.34,0,0,0,.17-.5c-.55-.9-1.46-.71-2.26-.61s-1.45.23-1.45,1.13a15.67,15.67,0,0,0,.12,3.93l-.17.37c-.5,0-1,.1-1.51.1-4.15-.08-8.3-.15-12.45,0-1.21,0-1.43-.16-1.43-1.25,0-9.46,0-18.92,0-28.38,0-.2,0-.4,0-.6.08-.85.52-1.26,1.37-1a2.75,2.75,0,0,0,2-.14c.44-.2,1-.46.49-1.14v-.72c.22-1-.12-1.27-1.19-1l-9.84,0c-.68-.5-1.11-.12-1.36.47a1.85,1.85,0,0,0,.72,2.35c1,.42,2,.16,3,.28l.29.48c-.42.34-.25.82-.25,1.23q0,14.1,0,28.18a11.82,11.82,0,0,0,.13,1.18,1,1,0,0,1-.54.56c-.36-.19-.68-.25-.86.23l-1.17.07c-1-.53-1.22,0-1.43.84s.51,1.48.47,2.27H195c-.07-.46.23-.58.58-.76a11.71,11.71,0,0,0,2.61-1.67,13,13,0,0,0,4.28-8.48c.35-4,.37-8-2-11.49a11.06,11.06,0,0,0-6.93-4.86,17.53,17.53,0,0,0-6.42,0c-.76.12-1.61.21-2,1.07l-1.27.52a.49.49,0,0,0-.65,0,11.38,11.38,0,0,0-3.49,3.52,14.07,14.07,0,0,0-2.18,6.69,22.74,22.74,0,0,0,.39,7.38,12.49,12.49,0,0,0,4.62,6.47c.71.53,1.86.54,2.14,1.62H172l-.08-.7c.68-.62.33-1.43.25-2.12s-.72-.29-1.13-.3c-2.37-.1-2.56-.29-2.52-2.6V42.78c0-3.47,0-6.94,0-10.41,0-.86.33-1.08,1.15-1.06,2.36.05,4.71,0,7.07,0,2.06,0,2.39.36,2.44,2.44,0,1-.31,2.08.3,3a1.41,1.41,0,0,0,2.36.24c.67-.36.56-1,.57-1.59,0-1.72,0-3.44,0-5.16,0-2.15,0-2.16-2.11-2.16q-13.18,0-26.39,0c-1,0-1.91-.06-2.87-.11a.94.94,0,0,0-1.12,1,45.62,45.62,0,0,0,.06,7.3c.15,1.34,1.21,1.15,2.11,1.14s1.36-.56,1.38-1.46,0-2,0-3,.43-1.51,1.5-1.5c2.47,0,4.95,0,7.43,0,1.52,0,1.56,0,1.56,1.51V60.82c0,2.14,0,2.18-2.17,2.36-1.64.14-2,.86-1.18,2.39,0,.27.1.55-.1.79H131.2c.21-1.13,1.33-1.19,2.06-1.6,1.65-.94,2.78-2,2.51-4.11-.08-.62.11-1.34-.67-1.62s-1,.36-1.43.79c-.21.23-.51.37-.62.7-1.35.43-2.46,1.34-3.81,1.83a7.37,7.37,0,0,1-5.77.06,5.22,5.22,0,0,0-2-.73l-.16-.11a2,2,0,0,0-1.44-1.44l-.34-.41a1.68,1.68,0,0,0-.23-1.49c-1.1-1.49-.8-3.19-.9-4.83,0-.73.3-1,1-.93,5.14.4,10.29.09,15.44.16.86,0,1.59-.4,1.54-1.44-.16-4-1-7.84-4.32-10.54-1.09-.9-2.36-1.94-4-1.47l-.91,0a2.81,2.81,0,0,0-3,0l-.68.05a1.38,1.38,0,0,0-1.58.09c-1.57.9-3.27,1.57-4.57,2.92a11.67,11.67,0,0,0-3.4,6.65c-.42,3.42-.73,6.87.65,10.24a19.06,19.06,0,0,0,2.5,4.26c.18.24.49.5.69,0a1,1,0,0,1,.68.64c-.33-.07-.48.13-.33.37a.6.6,0,0,0,1,.11.18.18,0,0,1,.17.1c-.26.69.31.81.72,1s.88.22.84.83H107c0-.66.71-1,.68-1.72,0-1.48-1-2-3-1.43l-.75-.29,0-.38c.3,0,.3-.29.38-.52.37-1.07,0-2.12,0-3.18,0-2.41,0-4.81.2-7.21,0-.45.2-1-.42-1.24a1.16,1.16,0,0,0,0-.84l.07-.49.2-.46a2.09,2.09,0,0,0,1-1.64,7.3,7.3,0,0,1,3.09-4.06c1.14-.84,2.36-.36,2.36.88s.68,1.46,1.7,1.43c1.28,0,1.78-.41,1.82-1.53q0-1.26,0-2.52a2.08,2.08,0,0,0-2-2.1c-1.71-.06-3.38-.16-5,.84A8.82,8.82,0,0,0,104.8,42c-.18.26-.38.63-.71.55s-.24-.6-.3-.92-.11-.71-.18-1.06a1.15,1.15,0,0,0-1.5-1,20.92,20.92,0,0,1-4.39.47c-.88,0-1.17.69-1.4,1.41a1.06,1.06,0,0,0,.48,1.34,1.27,1.27,0,0,0,1.81-.11c1.3-.2,1.57.6,1.57,1.64q0,8.65,0,17.31a7.86,7.86,0,0,1-.1,1,.74.74,0,0,1-.8.71,1.89,1.89,0,0,0-2.1-.05,1.4,1.4,0,0,0-.42,1.61c.17.52.4,1,.6,1.52H87.52c-.15-.44.08-.61.46-.8a12.59,12.59,0,0,0,2.14-1.3c4-3.2,5-7.73,4.93-12.49a13.27,13.27,0,0,0-2.46-8.07c-1.67-2.21-3.72-4.07-6.39-4.53-3.76-.67-7.56-.71-11,1.78a13.36,13.36,0,0,0-5.38,9.41c-.21,1.45.08,3-.08,4.43A9.91,9.91,0,0,0,70.94,60a11.37,11.37,0,0,0,5.34,5.59c.37.18.79.25.68.8H66.64a1.29,1.29,0,0,1,0-.35c1.13-2,.82-2.7-1.46-3.05-1.68-.26-1.71-.3-1.71-2.06q0-14,0-28a3.59,3.59,0,0,1,.31-1.74c.61-.17,1.16.21,1.77.16a1.79,1.79,0,0,0,1.73-1.9c0-1.07-.71-1.42-1.68-1.42h-7c-.67,0-1.43.07-1.61.77-.3,1.16-.92,2.2-1.18,3.34a30.61,30.61,0,0,1-1.49,4.12c-.38,1-.61,2-1,3-.61,1.41-1.08,2.88-1.6,4.33s-1,2.75-1.45,4.13a24.54,24.54,0,0,0-1.61,4.79c-.3.87-1.27,1.53-.81,2.62l-.09.44a1.87,1.87,0,0,0-.89,2.2c0,.21,0,.42.17.57l-.08,0c-1.18.24-.77,1.53-1.41,2.14a4.43,4.43,0,0,0-1.17-2.22l-.1-.69c.35-.61.09-1-.49-1.21l-.14-.39c.14-.29.06-.48-.25-.57l-.08-.47c.34-1-.31-1.55-.87-2.17l-.1-.47a.94.94,0,0,0-.49-1.44l-.4-1.13c.18-.3,0-.48-.23-.6l-.08-.43c.34-.57,0-.8-.48-1-.14-.3-.12-.72-.58-.79h-.08l0,.07.1-.45c.19-.12.13-.32.13-.49.41-.79-.22-1.09-.68-1.48l-.28-.2-.1-.43.1-.53c.35-.62.09-1-.51-1.19-.14-.2-.16-.54-.53-.49l-.1-.37c.2-.16.17-.38.18-.59.36-.82-.12-1.28-.71-1.7l-.18-.87a1.47,1.47,0,0,0-.78-1.78l-.18-.86c.13-.62.17-1.21-.57-1.51-.3-.36-.2-1-.7-1.2l-.11-.43.1-.53c.27-.72-.17-1.12-.68-1.48-.08-.2-.06-.48-.39-.48l-.32-.75c.08-.91-.58-.93-1.18-.93-2.59,0-5.17,0-7.76,0-.36-.33-.45-.1-.48.24l-.28.45q-1,.63,0,1.26l.28.45c0,.31.1.6.48.23.32,0,.64,0,.95,0,1.45,0,1.76.34,1.88,1.85-.54.18-.4.63-.4,1q0,13.07,0,26.13c0,.38-.14.83.38,1V62c-.4.1-.43.41-.44.74l-.46.49-.67.1a1.67,1.67,0,0,0-1-.14c-.39-.3-.63-.21-.74.27l-.29.46c-.6.28-.37.76-.28,1.2S24.42,65.84,24.4,66.36ZM40.48,25.57c.89-.53,1.38-1.54,2.36-1.95.39-.07.92,0,.54-.69l0-.48c.2,0,.42-.12.34-.37A1.29,1.29,0,0,0,42.39,21a4.94,4.94,0,0,1-3.7-.86.58.58,0,0,0-.85.13H35.19c-.63-.4-1-.27-1.19.5a.34.34,0,0,1-.18,0,.41.41,0,0,0-.55.42,2.45,2.45,0,0,1-1,1c-.37,0-.49.23-.41.58l-.25.41-1.56,0c-.71,0-1.43-.06-1.37,1a1.34,1.34,0,0,0,1.44,1.41c.64,0,1.28,0,1.92,0a.46.46,0,0,1,.28.42c.35,1.26,1.39,1.37,2.44,1.46l1.61.06A4.47,4.47,0,0,0,40.48,25.57Zm-12-14.9c-.54.26-.87.59-.46,1.21l0,.45c-.65.13-.69-.26-.74-.76A11.6,11.6,0,0,0,25,6.16a53.26,53.26,0,0,0-4.21-5C20.21.41,19.59.12,19,.48a1.62,1.62,0,0,0-.68,2,2.1,2.1,0,0,1,.09,1.41c-.58,1.54-.5,3.22-1.06,4.76-.76,2.11,0,4,1.06,5.76a4.64,4.64,0,0,0,2.39,2.23,1.22,1.22,0,0,1,1,1.37,11.53,11.53,0,0,0,0,1.44,1.46,1.46,0,0,0,1.89,1.29c1-.19,1-.85.81-1.64A2.59,2.59,0,0,1,25.39,16a3.43,3.43,0,0,0,1.37-1.91.49.49,0,0,1,.49-.44c.32,0,.29.35.28.58A8.15,8.15,0,0,0,27.8,16c.14.81,1,1.27,1,2.13l-.05.24c-.39.24-.92.35-.92,1A2.31,2.31,0,0,0,27,21.25c-.26.72.25.89.75.93.75.07,1.56.12,1.65-1a2.23,2.23,0,0,1,2.21-2.13,6.33,6.33,0,0,0,3.7-1.39,13.47,13.47,0,0,0,2.77-3.4c.51-.09.59-.33.25-.72l.49-1.91c.62-.44.9-1,.46-1.69V2c.16-.74.41-1.51-.74-1.67-.92-.11-1.71-.11-2,1.08a3.49,3.49,0,0,1-.94,1.49C33.76,4.81,31.91,6.68,30,8.45A4.59,4.59,0,0,0,28.47,10.67Zm-18,23.93H12.1a6,6,0,0,0,6.26-5.05,1.1,1.1,0,0,1,.84-.92A4.27,4.27,0,0,0,20.35,28c.7-.44,1.58-1,.93-1.83s-1.44-.14-2,.41a1.46,1.46,0,0,1-2.13.09c-2.66-2-5.32-1.93-8,0-2.14,1.5-4,3.4-6.54,4.31-.91.32-.91,1.32-.09,1.89a3.11,3.11,0,0,0,1,.47C5.84,33.92,8.2,34.88,10.44,34.6Zm241.09-6.36a2.57,2.57,0,0,0-2.85,2.42c-.19,1.18,1.43,2.74,2.65,2.74A2.73,2.73,0,0,0,254,30.79,2.39,2.39,0,0,0,251.53,28.24Z" transform="translate(-0.04 0)"/><path class="cls-2" d="M55.84,66.36H47l.21-1a6.52,6.52,0,0,0,.52-.92Q50.12,57.74,52.52,51c.47-.09.62-.51.72-.87.3-1.07.76-2.08,1.12-3.12.91-2.69,2-5.33,2.85-8,.47-1.49,1.27-2.92,1.33-4.54.65,0,.35.83.83,1a23.23,23.23,0,0,1,0,4.17c0,6.39-.14,12.77.09,19.15a3.3,3.3,0,0,1-.22,1.76c-1,.62-.36,1.52-.41,2.3l0,.06c-.28-.12-.54,0-.8.06C54.77,63.36,54.7,63.47,55.84,66.36Z" transform="translate(-0.04 0)"/><path class="cls-2" d="M43.36,66.36H34.24l.22-1c.48-1.48,0-2.13-1.51-2.15a1.75,1.75,0,0,1-1.81-1L31.05,62q0-11.87,0-23.71c0-1.35,0-2.71,0-4.06l.86-.1.15.52c-.39.43-.09.82.06,1.22.23.59.48,1.18.69,1.78.8,2.32,1.56,4.65,2.38,7,.52,1.49,1.14,3,1.67,4.45.76,2.16,1.43,4.36,2.24,6.5,1,2.67,2.05,5.32,2.9,8,.23.73.28,1.81,1.44,1.94h0Z" transform="translate(-0.04 0)"/><path class="cls-3" d="M119.32,64.54a.18.18,0,0,0-.17-.1c-.1-.32-.27-.54-.66-.48a1,1,0,0,0-.68-.64c.06-.47-.55-.6-.53-1a3.93,3.93,0,0,0-1.34-2.19,3.31,3.31,0,0,1-.85-2.36c.41-.3.19-.43-.14-.53l-.15.08c0-.18.09-.35.13-.52.29-.28.18-.42-.16-.48l-.07-.48c.29-.35.25-.61-.19-.76a11,11,0,0,1,0-4.24c.33-.09.46-.23.16-.52l-.16-.51.19-.19c.49-.15.58-.39.17-.74l.1-.45a14.83,14.83,0,0,0,1.32-3.66,9.16,9.16,0,0,1,5.79-4.49.85.85,0,0,0,1.22-.43l.18-.18a.74.74,0,0,0,1-.06l2.23-.14c.37.53.88.33,1.36.29l.21.08c.15.64.47.31.76.15a9.27,9.27,0,0,1,4.77,3.63,21.58,21.58,0,0,1,1.41,6.35c0,1-.2,1.54-1.14,1.48-4.86-.27-9.72,0-14.58-.11a5,5,0,0,0-1,.06c-1.21.2-1.58.76-1.47,2a23.41,23.41,0,0,0,1,4.77,3.46,3.46,0,0,0,1.77,2.53l.12.15c0,.51.19.74.69.72l.16.11a2.38,2.38,0,0,0,2,1.36c1.85.86,3.81.62,5.75.51.57,0,1.24.22,1.47-.61l.89-.4a3.81,3.81,0,0,0,2.71-1.84l.42-.3c1.31.1.49,1.21.85,1.76l-.09.44a1.62,1.62,0,0,0-1.26,1.13l-.41.33c-.77.18-1.61.22-2,1.1l-1.1.36c-.69-.24-1.27.25-1.92.26s-1.08-.06-1.25.64H125a2.12,2.12,0,0,0-2.16-.72l-.94,0-1.36-.51c-.09-.3-.26-.45-.59-.38C119.74,64.57,119.56,64.43,119.32,64.54Zm5.88-14.93H131c1.14,0,1.46-.36,1.29-1.45-.06-.4-.13-.79-.22-1.18-.79-3.38-3.27-5.46-6.54-5.38-4.45.11-6.42,3.24-7.35,6.83-.22.89.34,1.21,1.18,1.2C121.28,49.6,123.24,49.61,125.2,49.61Z" transform="translate(-0.04 0)"/><path class="cls-4" d="M.16,4.68v-1a1.46,1.46,0,0,1,2,.55,5.47,5.47,0,0,0,2,1.46c2.06,1.09,4.32,1.73,6.4,2.77,4.08,2,7.11,5.1,5.91,10.3a2.07,2.07,0,0,0,.23,1.51c.3.53.08.84-.46.65a3,3,0,0,0-2,.18c-3,.85-5.65.41-7.82-2a19,19,0,0,1-3.13-5.22A35.32,35.32,0,0,1,1.21,7C1,6.23,1.33,5.07.16,4.68Z" transform="translate(-0.04 0)"/><path class="cls-1" d="M293.44,46.44V59.16c-.77.2-1.79-.38-2.31.24-1.34,1.61-3.16,2.31-5,3.12a7.76,7.76,0,0,1-8.64-2.22,8.79,8.79,0,0,1-1.91-5.61c0-.63-.43-1.26-.1-1.87.46-.88,1.22-.19,1.83-.23a89.66,89.66,0,0,1,11.82,0,11.65,11.65,0,0,0,3.33-.12c.64-.15.77-.45.68-1,0-.24,0-.47,0-.71v-.46c0-.4,0-.8,0-1.2l0-1.44C293.33,47.27,292.92,46.74,293.44,46.44Z" transform="translate(-0.04 0)"/><path class="cls-5" d="M.16,4.68C1.33,5.07,1,6.23,1.21,7a35.32,35.32,0,0,0,2.16,6.89A19,19,0,0,0,6.5,19.11c2.17,2.44,4.82,2.88,7.82,2a3,3,0,0,1,2-.18c.54.19.76-.12.46-.65a2.07,2.07,0,0,1-.23-1.51c1.2-5.2-1.83-8.26-5.91-10.3-2.08-1-4.34-1.68-6.4-2.77a5.47,5.47,0,0,1-2-1.46,1.46,1.46,0,0,0-2-.55V2.52A3.21,3.21,0,0,1,2.8,3.65,10.26,10.26,0,0,0,6.93,6a28.27,28.27,0,0,1,5.23,2.28c3.36,2.08,5.74,4.79,5.48,9.07,0,.12,0,.24,0,.36-.23,2.62.21,3.37,2.71,4.3.87.32,1.35.77,1,1.68s-1.15.74-1.9.35a24.3,24.3,0,0,1-2.6-1.89,1.52,1.52,0,0,0-1.67-.28c-3.43,1.69-6.38.68-8.94-1.77a17.49,17.49,0,0,1-4.27-7.2C1.54,11.75.79,10.74.86,9.47c0-.34-.32-.54-.7-.47ZM20.31,23c-.07-.28-.29-.34-.53-.32s-.35,0-.32.24.33.38.6.4S20.29,23.16,20.31,23Zm-2.22-1.22c0-.07,0-.16-.09-.19a.19.19,0,0,0-.19,0,.14.14,0,0,0,.1.24C18,21.88,18,21.82,18.09,21.78Z" transform="translate(-0.04 0)"/><path class="cls-6" d="M246.88,66.36c0-.75-.61-1.38-.38-2.19S247,63,247.88,63c1.58,0,1.68-.13,1.68-1.73,0-5.68,0-11.36,0-17,0-1.17-.39-1.63-1.53-1.48-.32,0-.64,0-1,0-.78.07-1.28-.28-1.31-1s-.06-1.61,1-1.79q2.64-.49,5.29-.88c1.06-.16,1.56.32,1.55,1.41,0,3.2,0,6.4,0,9.6,0,3.88,0,7.76,0,11.64,0,.77.07,1.3,1.06,1.33,2.21.06,2.61.83,1.63,3a.81.81,0,0,0,0,.35Zm6.17-14.63h0V41.42c0-.66,0-1.51-.88-1.39-1.58.22-3.18.26-4.76.46-.5.07-1,.34-.93.92s.54.72,1.06.72l.47,0c1.78-.07,2.19.25,2.2,2,0,5.83,0,11.66,0,17.5,0,1.65-.26,1.93-1.92,2.09-.61.06-1.18.18-1.13.92s.68.76,1.27.76c2.12,0,4.23,0,6.35,0,.58,0,1.2,0,1.24-.76s-.5-.88-1.13-.91c-1.7-.08-1.88-.29-1.88-2Z" transform="translate(-0.04 0)"/><path class="cls-6" d="M77,66.36c.11-.55-.31-.62-.68-.8A11.37,11.37,0,0,1,70.94,60a9.91,9.91,0,0,1-1.16-5.18c.16-1.46-.13-3,.08-4.43A13.36,13.36,0,0,1,75.24,41c3.4-2.49,7.2-2.45,11-1.78,2.67.46,4.72,2.32,6.39,4.53a13.27,13.27,0,0,1,2.46,8.07c.06,4.76-.9,9.29-4.93,12.49A12.59,12.59,0,0,1,88,65.56c-.38.19-.61.36-.46.8H85.6c0-.76.63-.73,1.08-.89A10.17,10.17,0,0,0,92.22,61C95.07,56,95,50.83,93.05,45.65a6.78,6.78,0,0,0-3.39-4l-.34-.19a1,1,0,0,0-1-.65c-.32-.39-.8-.37-1.24-.46a1.67,1.67,0,0,0-1.22-.63c-.12-.24-.3-.25-.52-.14l-.88-.08c-.33-.06-.64-.39-1-.07H81.76c-.23-.21-.39-.18-.48.13l-.4.12c-.31-.28-.65-.17-1-.09a1.18,1.18,0,0,0-1.32.49l-.19.22c-.46.12-1,.07-1.37.44-.33-.12-.51,0-.54.36a4.89,4.89,0,0,0-1.91,1.22c-1.28.46-1.81,1.63-2.39,2.67a17.1,17.1,0,0,0-1.65,11.71c.79,4.22,3.06,7.38,7.27,8.86.38.14.65.32.61.76Z" transform="translate(-0.04 0)"/><path class="cls-6" d="M293.17,51.46c.09.55,0,.85-.68,1a11.65,11.65,0,0,1-3.33.12,89.66,89.66,0,0,0-11.82,0c-.61,0-1.37-.65-1.83.23-.33.61.12,1.24.1,1.87a8.79,8.79,0,0,0,1.91,5.61,7.76,7.76,0,0,0,8.64,2.22c1.81-.81,3.63-1.51,5-3.12.52-.62,1.54,0,2.31-.24v.48a3,3,0,0,0,0,2.64v.48a.88.88,0,0,0-.95.28,13,13,0,0,1-4,2.65.55.55,0,0,0-.35.67H286c.13-.72.77-.72,1.27-.87a5.56,5.56,0,0,0,2.65-1.41.37.37,0,0,0,.19-.09,1.34,1.34,0,0,0,1.05-.84.33.33,0,0,0,.15-.11c1.05-.32,1-1.19,1-2,0-.35.07-.77-.35-.92a.71.71,0,0,0-.95.47l-.48.47a4,4,0,0,0-1.44.81,10.17,10.17,0,0,1-7.66,1.59c-1.46-.29-2.51-1.32-3.79-1.93l-.48-.46a8.7,8.7,0,0,0-1.34-2,.38.38,0,0,0-.08-.17,5.75,5.75,0,0,0-.69-1.88l-.08-.47a10.76,10.76,0,0,0-.23-2.72c-.14-1.85.08-2.09,1.92-2.08,5.21,0,10.42,0,15.63-.18Z" transform="translate(-0.04 0)"/><path class="cls-7" d="M55.84,66.36c-1.14-2.89-1.07-3,2.17-3.41.26,0,.52-.18.8-.06-.11.41-.69.24-.81.64l-1.14,0c-.78-.25-1,.21-1,.86S56.24,65.6,57,65.6c2.78,0,5.56,0,8.34,0a1.42,1.42,0,0,0,.89-.27c.53-.5.76-1.06-.15-1.45L66,63.81c-.11-.32-.3-.43-.61-.23L64,63.48c-.08-.28-.28-.28-.5-.22L63,62.57a5.56,5.56,0,0,0,.08-.7V33c0-.67-.14-1.38.46-1.9l.31,0a3.59,3.59,0,0,0-.31,1.74q0,14,0,28c0,1.76,0,1.8,1.71,2.06,2.28.35,2.59,1,1.46,3.05a1.29,1.29,0,0,0,0,.35Z" transform="translate(-0.04 0)"/><path class="cls-6" d="M185.16,40.14c.4-.86,1.25-1,2-1.07a17.53,17.53,0,0,1,6.42,0A11.06,11.06,0,0,1,200.52,44c2.36,3.54,2.34,7.47,2,11.49a13,13,0,0,1-4.28,8.48,11.71,11.71,0,0,1-2.61,1.67c-.35.18-.65.3-.58.76h-1.68c0-.67.53-.67.94-.86.61-.27,1.4-.26,1.72-1h0a1.88,1.88,0,0,0,1.73-1.16.22.22,0,0,0,.14-.11c2.73-2,3.71-4.86,3.88-8.1l0-.48a1,1,0,0,0,.11-1.29,3.33,3.33,0,0,0,0-2c.29-.3.2-.64.11-1,.21-.29.07-.55-.09-.8l-.1-.65a.33.33,0,0,0-.16-.52c-.15-.48-.29-1-.44-1.44a3.61,3.61,0,0,0-.14-.81c-2.25-5.19-6.88-7.17-12-6.79C187.73,39.43,186.5,40,185.16,40.14Z" transform="translate(-0.04 0)"/><path class="cls-8" d="M245.44,64.68c.67.67-.34,1.09-.24,1.68H218.32c0-.79-.69-1.41-.47-2.27s.47-1.37,1.43-.84c-.48.45-1.22.79-.89,1.63s1.08.7,1.75.72h.24c7.72,0,15.44,0,23.16,0A2,2,0,0,0,245.44,64.68Z" transform="translate(-0.04 0)"/><path class="cls-8" d="M184.72,66.36c-.28-1.08-1.43-1.09-2.14-1.62A12.49,12.49,0,0,1,178,58.27a22.74,22.74,0,0,1-.39-7.38,14.07,14.07,0,0,1,2.18-6.69,11.38,11.38,0,0,1,3.49-3.52.49.49,0,0,1,.65,0c-.12.49-.61.58-.93.86-1,.86-2.15,1.61-2.58,3l-.32.69c-1.28,1.2-1.48,2.81-1.72,4.41a.46.46,0,0,0,.13.52l-.13.41c-.44.28-.43.6-.09,1a13.39,13.39,0,0,0,0,3.1,1.06,1.06,0,0,0-.1.74c-.17.23-.17.4.15.48l.11.42a2.11,2.11,0,0,0,.61,2.22,2.74,2.74,0,0,0,.42,1.42,5.28,5.28,0,0,0,2.31,3.21l.73.72c0,.34.21.47.55.39a1,1,0,0,1,.17.1c.08.41.38.48.73.44l1.46.57c.13.54,1,.38,1,1.07Z" transform="translate(-0.04 0)"/><path class="cls-9" d="M89.66,41.69a6.78,6.78,0,0,1,3.39,4C95,50.83,95.07,56,92.22,61a10.17,10.17,0,0,1-5.54,4.51c-.45.16-1.1.13-1.08.89H80.32c0-.34-.33-.44-.48-.67a18.47,18.47,0,0,0,5.77-.45,10.19,10.19,0,0,0,7.08-6.16,17.86,17.86,0,0,0,1-9.27,15.67,15.67,0,0,0-1.51-4.72C91.58,43.73,90.29,43,89.66,41.69Z" transform="translate(-0.04 0)"/><path class="cls-6" d="M278.08,66.36c-.26-1.12-1.44-1.07-2.14-1.64a10.46,10.46,0,0,1-3.12-3.63c-.37-.82-.79-1.62-1.14-2.45-1.33-3.1-1-6.34-.61-9.44a11.59,11.59,0,0,1,4.19-7.66,1.4,1.4,0,0,1,1.16-.49c-.08.33-.57.45-.47.88l-.48.46c-1.78.76-2.54,2.44-3.05,4-1.54,4.84-1.72,9.72.75,14.36a6.83,6.83,0,0,0,3.71,3.66l.56.22c.11.33.28.55.68.43l.9.36c0,.54.65.48.74.91Z" transform="translate(-0.04 0)"/><path class="cls-10" d="M79.84,65.69c.15.23.48.33.48.67H78.4c0-.44-.23-.62-.61-.76-4.21-1.48-6.48-4.64-7.27-8.86A17.1,17.1,0,0,1,72.17,45c.58-1,1.11-2.21,2.39-2.67a2.25,2.25,0,0,1-.24.52,14.09,14.09,0,0,0-3.15,6.53,17.41,17.41,0,0,0,.42,9.32,9.69,9.69,0,0,0,7.29,6.7.42.42,0,0,0,.51.18Z" transform="translate(-0.04 0)"/><path class="cls-7" d="M104.66,63.21c2-.52,2.93-.05,3,1.43,0,.69-.67,1.06-.68,1.72h-9.6c-.2-.51-.43-1-.6-1.52a1.4,1.4,0,0,1,.42-1.61,1.89,1.89,0,0,1,2.1.05,1.24,1.24,0,0,1-.42.17c-.82,0-1.65.1-1.61,1.13s.93,1,1.7,1c1.87,0,3.74,0,5.62,0a8.36,8.36,0,0,0,1.66-.08.88.88,0,0,0,.69-1.19c-.16-.52-.43-1.06-1.16-.62l-.93,0Z" transform="translate(-0.04 0)"/><path class="cls-1" d="M288.16,66.36a.55.55,0,0,1,.35-.67,13,13,0,0,0,4-2.65.88.88,0,0,1,.95-.28c0,1,0,2,0,3,0,.52-.1.63-.62.62C291.28,66.33,289.72,66.36,288.16,66.36Z" transform="translate(-0.04 0)"/><path class="cls-7" d="M257.92,66.36c.12-.49-.33-.79-.39-1.2s-.32-1,.33-1.23c.2,1.63.27,1.69,1.92,1.69,2.38,0,4.77,0,7.16,0a1.63,1.63,0,0,0,1.51-.71c.67.59-.39.92-.21,1.44Z" transform="translate(-0.04 0)"/><path class="cls-7" d="M34.46,65.37l-.22,1H24.4c0-.52-.49-.78-.59-1.24s-.32-.92.28-1.2c.17,1.52.25,1.61,1.27,1.47.46-.07.93.16,1.38-.09a16.42,16.42,0,0,0,5.89,0c.44.23.87,0,1.31,0Z" transform="translate(-0.04 0)"/><path class="cls-7" d="M160.48,66.36c.2-.24.09-.52.1-.79l11.34.09.08.7Z" transform="translate(-0.04 0)"/><path class="cls-8" d="M134.06,60.34l-.42.3-.47,0-.12-.14c.11-.33.41-.47.62-.7.4-.43.69-1.06,1.43-.79s.59,1,.67,1.62c.27,2.07-.86,3.17-2.51,4.11-.73.41-1.85.47-2.06,1.6h-1.44l.29-.9,1.1-.36a2.59,2.59,0,0,0,2-1.1l.41-.33a1.31,1.31,0,0,0,1.26-1.13l.09-.44c.75-.36.31-1,.39-1.56,0-.32,0-.7-.39-.79A.65.65,0,0,0,134.06,60.34Z" transform="translate(-0.04 0)"/><path class="cls-9" d="M289.92,64.08a5.56,5.56,0,0,1-2.65,1.41c-.5.15-1.14.15-1.27.87h-5c-.13-.84-1.07-.48-1.44-1,.28-.33.57-.11.87,0a12.39,12.39,0,0,0,5.52,0C287.32,65.05,288.48,64.13,289.92,64.08Z" transform="translate(-0.04 0)"/><path class="cls-9" d="M196,64.46c-.32.78-1.11.77-1.72,1-.41.19-1,.19-.94.86h-5.28l0-.62a13,13,0,0,0,7.4-1.18A2.13,2.13,0,0,1,196,64.46Z" transform="translate(-0.04 0)"/><path class="cls-7" d="M43.36,66.36c0-.26,0-.52.07-.78a8.59,8.59,0,0,0,3.74-.21l-.21,1Z" transform="translate(-0.04 0)"/><path class="cls-8" d="M120.5,65.08l1.36.51c0,.26.15.52,0,.77h-1c0-.61-.44-.65-.84-.83s-1-.3-.72-1c.24-.11.42,0,.59.16C119.94,65.08,120.14,65.19,120.5,65.08Z" transform="translate(-0.04 0)"/><path class="cls-6" d="M293.44,46.44c-.52.3-.11.83-.29,1.21h-.68l-.39-2.12.31,0c.37.11.56.63,1.05.47Z" transform="translate(-0.04 0)"/><path class="cls-10" d="M188.05,65.74l0,.62H186.4c0-.69-.85-.53-1-1.07.44-.21.81.14,1.22.15a.42.42,0,0,0,.5.18Z" transform="translate(-0.04 0)"/><path class="cls-10" d="M130.05,65.46l-.29.9h-1.68l0-.64C128.78,65.71,129.36,65.22,130.05,65.46Z" transform="translate(-0.04 0)"/><path class="cls-9" d="M122.8,65.64a2.12,2.12,0,0,1,2.16.72H123Z" transform="translate(-0.04 0)"/><path class="cls-10" d="M279.52,65.39c.37.49,1.31.13,1.44,1h-1.2c-.09-.43-.78-.37-.74-.91Z" transform="translate(-0.04 0)"/><path class="cls-9" d="M128.13,65.72l0,.64h-1.2C127.05,65.66,127.56,65.63,128.13,65.72Z" transform="translate(-0.04 0)"/><path class="cls-11" d="M122.8,65.64l.24.72h-1.2c.17-.25.06-.51,0-.77Z" transform="translate(-0.04 0)"/><path class="cls-1" d="M293.44,62.28a3,3,0,0,1,0-2.64Z" transform="translate(-0.04 0)"/><path class="cls-12" d="M33.94,65.31c-.44,0-.87.23-1.31,0A.44.44,0,0,0,32.2,65h-5a.43.43,0,0,0-.43.34c-.45.25-.92,0-1.38.09-.22-.38-.78-.62-.52-1.2s.78-.44,1.24-.48c.28.29.53.34.72-.09a1.78,1.78,0,0,0,1.5-2.09c-.06-1.88,0-3.76,0-5.63l0-24.34c.33-.34.13-.45-.21-.5l-.5-.48c0-.34-.15-.55-.49-.22-.4,0-.8-.06-1.19-.12s-1.17,0-1.16-.72.72-.74,1.25-.75c2.28,0,4.55,0,6.83,0,.39.46.6,1.07,1.14,1.42l.28,1.17c-.22.67.18,1.07.65,1.43L35.15,34c-.16.54-.08,1,.52,1.2a4.66,4.66,0,0,1,.49,1.67c-.31.73.14,1.12.66,1.47l.3,1.17c-.31.72.14,1.11.63,1.49.12.12.17.34.41.3l.1.37c-.31.06-.16.31-.18.48a.8.8,0,0,0,.47,1.21c0,.12.09.25.14.37-.15.28-.12.49.23.58l.12.48a1.8,1.8,0,0,0,1,2.14l0-.07h.08c-.38.44.09.86,0,1.29-.3.53,0,.79.45,1A7.29,7.29,0,0,1,41.21,51c-.38.57,0,.8.46,1l.25.71c-.31.33-.15.45.2.5l.12-.06-.08.52c-.31.72.14,1.11.65,1.48l.28.2.12.45-.1.51c-.3.72.14,1.11.64,1.48a.62.62,0,0,1,.07.23c0,.78-.1,1.62.69,2.16l.35.14.19,1c-.45.48,0,.68.32.85s.61.1.64-.35c.2-.39.63-.72.38-1.25.08-.26.15-.52.22-.79l.44-.35c.35-.13.5-.29.09-.54L47,58.25l.08,0c.68-.27.56-1,.9-1.49.62-.26.38-.79.4-1.24l.32-.92c.39-.24.85-.45.37-1,0-.22.1-.46-.13-.64v0c.21-.06.26-.22.27-.41l.43-.57a1.28,1.28,0,0,0,.6-1.72l.27-.94c1-.43.9-1.35,1-2.19,0-.61.77-1,.46-1.7l.24-.82a1.42,1.42,0,0,0,.47-1.34.71.71,0,0,0,.08-.18,3.79,3.79,0,0,0,.87-2.47l.25-.57a1.2,1.2,0,0,0,.45-1.35l.26-.81c.72-.42.73-1.12.71-1.83l.16-.61a1,1,0,0,0,.72-.86c.23-1.39,1-2.59,1.32-3.94s.84-1.8,2.32-1.78,2.78,0,4.17,0c.37,0,.81.13,1.06-.32h.34c.21.42,1,.55.68,1.23s-.81.4-1.28.4c-1.59,0-2.4.82-2.4,2.57q0,14.19,0,28.4c0,.55,0,1.14.6,1.43l.53.69c0,.35.18.49.5.22l1.38.1c.12.28.32.39.61.23l.09.06c0,1.1-.56,1.35-1.59,1.31-2.27-.08-4.54,0-6.81,0-.47,0-1,.16-1.3-.36s.26-.84.48-1.22l1.14,0a.49.49,0,0,0,.54.15c1-.18,1.51-.9,1.56-2.62.06-2.07,0-4.15,0-6.22.11-7.3-.26-14.6.18-21.89a3.61,3.61,0,0,0-.17-1.17c-.21-.78-.72-.9-1.17-.27a3.74,3.74,0,0,0-1,2.93l-.07.43A3,3,0,0,0,57,36.51c-.78,2.3-1.57,4.6-2.39,6.88-1.17,3.22-2.43,6.4-3.54,9.63C49.78,56.86,48.49,60.7,47,64.47c-.54,1.35-1.83.45-2.76.66a.77.77,0,0,1-.82-.57c-.35-.89-.69-1.79-1-2.69-.83-2.32-1.65-4.64-2.48-7s-1.71-4.79-2.57-7.18l-2.43-6.86a67.11,67.11,0,0,1-2.55-7.43,3.94,3.94,0,0,0-.7-1.51c-.25-.33-.48-.67-1-.56s-.57.62-.55,1.06c.06,1.31.19,2.63.2,3.94,0,3.52,0,7,0,10.55-.05,4.75.17,9.51-.13,14.26a2.21,2.21,0,0,0,2.37,2.54C33.78,63.72,34.2,64.18,33.94,65.31Z" transform="translate(-0.04 0)"/><path class="cls-11" d="M171.92,65.66l-11.34-.09c-.82-1.53-.46-2.25,1.18-2.39,2.13-.18,2.17-.22,2.17-2.36V33c0-1.5,0-1.52-1.56-1.51-2.48,0-5,0-7.43,0-1.07,0-1.55.42-1.5,1.5s0,2,0,3-.44,1.45-1.38,1.46-2,.2-2.11-1.14a45.62,45.62,0,0,1-.06-7.3A.94.94,0,0,1,151,28c1,.05,1.91.11,2.87.11q13.2,0,26.39,0c2.1,0,2.11,0,2.11,2.16,0,1.72,0,3.44,0,5.16,0,.58.1,1.23-.57,1.59a5.9,5.9,0,0,1-2.36-.24c-.61-1-.28-2-.3-3,0-2.08-.38-2.45-2.44-2.44-2.36,0-4.71,0-7.07,0-.82,0-1.15.2-1.15,1.06,0,3.47,0,6.94,0,10.41V60.64c0,2.31.15,2.5,2.52,2.6.41,0,1.07-.25,1.13.3S172.6,65,171.92,65.66Zm-4.2-18.95c0-4.75,0-9.51,0-14.27,0-1,.21-1.82,1.38-1.83,2.8,0,5.6,0,8.4,0,1.36,0,2,.65,2.26,2a6.57,6.57,0,0,1,0,2.5c-.14.83.25,1.21,1,1.29s1.13-.36,1.12-1.16c0-1.68,0-3.35,0-5,0-1.39-.19-1.57-1.62-1.57l-9.83,0-18.24,0c-1.38,0-1.58.21-1.57,1.61,0,1.64,0,3.28,0,4.92,0,.76.19,1.22,1.06,1.23s1.2-.44,1.14-1.27c0-.56,0-1.12,0-1.68,0-2.23.64-2.85,2.87-2.87,2.4,0,4.8,0,7.2,0,1.57,0,1.95.39,1.95,2,0,9.32,0,18.64,0,27.95,0,2.31-.59,3.32-2.78,3.17-.52,0-1.11.14-1.05.85s.6.68,1.09.68h8.4c.48,0,1,0,1.09-.67s-.51-.81-1.05-.88c-.36,0-.72,0-1.08-.09a1.58,1.58,0,0,1-1.55-1.53c0-.52-.14-1-.14-1.55Q167.72,53.61,167.72,46.71Z" transform="translate(-0.04 0)"/><path class="cls-13" d="M279.52,65.39l-.5.06-.9-.36c-.06-.4-.15-.76-.68-.43l-.56-.22c0-.35-.32-.43-.53-.59a10.34,10.34,0,0,1-3.76-5.69,22.94,22.94,0,0,1-.28-8.9,11.31,11.31,0,0,1,3-6.44,1.11,1.11,0,0,0,.17-.43l.48-.46c1.07-.26,1.8-1.17,2.86-1.46a2.51,2.51,0,0,0,2.42-.7l.45,0a3.75,3.75,0,0,0,2.64,0l.45,0c.91,1,2.25.75,3.34,1.22.18.58.65.71,1.18.74.26.11.42.41.75.34l.2.55c-.5.75.07.82.59.93.07.12.13.24.19.36a.64.64,0,0,0-.08.78c1.21,1.53.74,3.41,1.14,5.1.3,1.27-.22,1.28-1.18,1.28-4.86,0-9.73,0-14.6,0a2.28,2.28,0,0,0-2,.61c-.7.87-.26,4,.64,4.87,0,.16,0,.31.08.47-.35.84-.35,1.55.69,1.88a.38.38,0,0,1,.08.17,1.66,1.66,0,0,0,1.34,2l.48.46c.37,1.28,1.58,1.71,2.56,2.06,3.62,1.31,6.93.37,10-1.85.24-.17.44-.35.37-.68l.48-.47c.5,0,.71.18.78.74s-.46,1.12-.48,1.73a.33.33,0,0,1-.15.11c-.7-.16-1,.22-1.05.84a.37.37,0,0,1-.19.09c-1.44,0-2.6,1-4,1.26a12.39,12.39,0,0,1-5.52,0C280.09,65.28,279.8,65.06,279.52,65.39ZM276.4,44.77c-.34,0-.49.18-.35.53l-.18.62c-.42.4-1.11.68-.69,1.48a4.05,4.05,0,0,0-.21,1.92c-.05,1.1.8.9,1.41.91,3.92,0,7.84,0,11.75,0a3.71,3.71,0,0,0,1.41-.25,1,1,0,0,0,.69-1.33,2.74,2.74,0,0,0-.78-1.57l-.11-.89c.34-.38.29-.62-.24-.7a1.24,1.24,0,0,0-.1-.2c.12-.35,0-.5-.37-.53a5.72,5.72,0,0,0-3.08-2.92,4.31,4.31,0,0,0-5.1-.24l-1.59.62c-.36-.11-.51,0-.51.39A13.73,13.73,0,0,0,276.4,44.77Z" transform="translate(-0.04 0)"/><path class="cls-10" d="M245.44,64.68a2,2,0,0,1-1.9.93c-7.72,0-15.44,0-23.16,0h-.24c-.67,0-1.43.07-1.75-.72s.41-1.18.89-1.63l1.17-.07a.63.63,0,0,0,.86-.23,1,1,0,0,0,.54-.56c.5-.4.32-1,.32-1.45q0-13.95,0-27.89c0-.42.15-.88-.2-1.25l-.29-.48c-.35-.71-1-.65-1.64-.69s-1.4,0-1.67-.8.42-1.18.91-1.61l9.84,0a4.26,4.26,0,0,1,1.19,1v.72c-.51.8-1.3.76-2.11.75-1.85,0-2.23.37-2.23,2.23,0,2.16,0,4.32,0,6.47q0,11,0,22c0,1,.15,1.66,1.34,1.65,4.35,0,8.7,0,13.05,0,.6,0,1.22,0,1.5-.72.06-.12.12-.25.17-.37.64-.82.25-1.76.33-2.65.06-.7-.15-1.51.72-1.85a2,2,0,0,1,2.37.55c0,.15,0,.3,0,.46a19.86,19.86,0,0,0,0,4.36ZM225.28,47.15h0c0-4.72,0-9.44,0-14.15a4.63,4.63,0,0,1,.13-1.43c.49-1.61,1.79-1.44,3-1.42.5,0,1.17.09,1.13-.69s-.63-.6-1.11-.61c-2.79,0-5.59,0-8.39,0-.46,0-1.07-.09-1.06.63s.55.65,1.05.68c2.11.14,2.56.59,2.57,2.73q0,14,0,28.06c0,2.19-.28,2.46-2.49,2.85-.45.07-1.2,0-1.13.75s.74.6,1.23.6c2.64,0,5.28,0,7.92,0l15.35,0c.67,0,1.45,0,1.36-.89-.19-1.84-.07-3.68-.09-5.51,0-.58-.14-1.07-.85-1s-1,.4-.94,1.1a17.35,17.35,0,0,1,0,2c-.14,1.9-.93,2.63-2.8,2.63H227.38c-1.79,0-2.1-.3-2.1-2.07Z" transform="translate(-0.04 0)"/><path class="cls-14" d="M268.45,64.92a1.63,1.63,0,0,1-1.51.71c-2.39,0-4.78,0-7.16,0-1.65,0-1.72-.06-1.92-1.69.2-.92.95-.68,1.55-.68,1.46,0,1.82-.35,1.82-1.83,0-5.83,0-11.67,0-17.5,0-1.2-.67-1.15-1.47-1.11-1,.06-1.89-.06-2.09-1.24a1.53,1.53,0,0,1,1.87-1.81c1.29.19,1.66-.1,1.67-1.36s0-2.64,0-3.95c0-.25,0-.49,0-.73.56-1.27.8-2.69,1.74-3.79a11,11,0,0,1,5.23-2.69h2.4c.23.31.58.21.88.26,3.14.53,4,1.66,3.64,4.8-.08.73-.4,1.16-1.2,1.2a2.55,2.55,0,0,1-1.91-.49c0-.54-.05-1.09-.07-1.64a.53.53,0,0,0-.38-.76h0a1.55,1.55,0,0,0-1.72-.88H269a2.07,2.07,0,0,0-2.07.73l-.35.18a1,1,0,0,0-.75.92h0c-.64.33-.59,1-.69,1.54a22.5,22.5,0,0,0-.29,4.26c0,2.64,0,2.62,2.68,2.65,1,0,2.09-.3,2.87.68v1.2l-.72.74-4,.06c-1,0-.78.71-.78,1.25,0,5.84,0,11.68,0,17.51,0,.42-.13.9.34,1.2a.89.89,0,0,0,.89.63q.24.33.48,0h1l.94.94Zm-4.28-12.17c0-3,0-6.07,0-9.11,0-1.07.44-1.55,1.49-1.53h3c.64,0,1.31-.08,1.23-.91s-.67-.72-1.29-.67a12.85,12.85,0,0,1-3.22,0,1.23,1.23,0,0,1-1.2-1.36c0-1.48-.1-3,.06-4.43.23-2.1.78-4.07,2.91-5.18,2.6-1.35,5.15-.15,5.39,2.63.06.65.34.94,1,.91s1-.2,1-.9,0-1.2,0-1.8a1.61,1.61,0,0,0-1.28-1.77,13.27,13.27,0,0,0-4.47-.69,6.52,6.52,0,0,0-6.58,6,38.3,38.3,0,0,0-.2,4.78c0,1.49-.58,2-2.05,1.9a6.05,6.05,0,0,0-.83-.1.72.72,0,0,0-.74.77c0,.53.19.85.74.87.31,0,.63,0,.95,0,1.69,0,1.93.22,1.93,1.94,0,5.59,0,11.19,0,16.78,0,2.59-.19,2.81-2.78,3.09-.44,0-.82.15-.8.67s.43.62.86.61c1,0,2,0,3,0,1.6,0,3.19,0,4.79,0,.43,0,.85-.08.86-.61s-.38-.64-.82-.66c-.19,0-.39,0-.59,0-1.67,0-2.34-.66-2.35-2.31Z" transform="translate(-0.04 0)"/><path class="cls-5" d="M10.44,34.6c-2.24.28-4.6-.68-7-1.27a3.11,3.11,0,0,1-1-.47c-.82-.57-.82-1.57.09-1.89,2.54-.91,4.4-2.81,6.54-4.31,2.72-1.91,5.38-2,8,0a1.46,1.46,0,0,0,2.13-.09c.6-.55,1.41-1.21,2-.41s-.23,1.39-.93,1.83a4.27,4.27,0,0,1-1.15.62,1.1,1.1,0,0,0-.84.92A6,6,0,0,1,12.1,34.6Zm.55-.81c2.45-.53,5.24-.24,6.3-3.49.57-1.78.72-1.69-.68-2.85a5.3,5.3,0,0,0-4.34-1.05c-2.12.25-3.64,1.51-5.19,2.71A17.42,17.42,0,0,1,3.4,31.52c-.24.1-.61.05-.56.45s.36.41.62.49C5.9,33.27,8.46,33.33,11,33.79Z" transform="translate(-0.04 0)"/><path class="cls-8" d="M27,21.25a2.31,2.31,0,0,1,.78-1.93,1,1,0,0,0,.92-1c0-.08,0-.16.05-.24.86-.38.27-.91,0-1.2A3.47,3.47,0,0,1,28,14.37c0-.68,0-1.36,0-2l0-.45a2.26,2.26,0,0,0,.46-1.21A4.59,4.59,0,0,1,30,8.45c1.94-1.77,3.79-3.64,5.64-5.51a3.49,3.49,0,0,0,.94-1.49c.29-1.19,1.08-1.19,2-1.08A5.43,5.43,0,0,0,39.29,2V10a3.14,3.14,0,0,0-.46,1.69c-.16.64-.33,1.28-.49,1.91-.29.17-.26.45-.25.72a13.47,13.47,0,0,1-2.77,3.4,6.33,6.33,0,0,1-3.7,1.39,2.23,2.23,0,0,0-2.21,2.13C28.62,21.71,27.83,22,27,21.25ZM38.87,5.82c-.15-1.27-.31-2.65-.49-4a.71.71,0,0,0-.55-.7c-.43-.07-.52.29-.65.58a10.41,10.41,0,0,1-2.47,3.16c-1.67,1.65-3.61,3-5,4.94s-1.82,5-.76,6.5a2,2,0,0,1-.05,2.87c-.24.26-.48.53-.7.81s-.71.64-.23,1,.72-.16.95-.49.19-.44.33-.63a3.25,3.25,0,0,1,2.71-1.67c2.48,0,4.05-1.47,5.11-3.51C38.46,11.92,38.52,8.89,38.87,5.82Z" transform="translate(-0.04 0)"/><path class="cls-7" d="M28,12.33c0,.68,0,1.36,0,2a3.47,3.47,0,0,0,.79,2.55c.25.29.84.82,0,1.2,0-.86-.82-1.32-1-2.13a8.15,8.15,0,0,1-.27-1.76c0-.23,0-.54-.28-.58a.49.49,0,0,0-.49.44A3.43,3.43,0,0,1,25.39,16a2.59,2.59,0,0,0-.89,3.08c.21.79.16,1.45-.81,1.64a1.46,1.46,0,0,1-1.89-1.29,11.53,11.53,0,0,1,0-1.44,1.22,1.22,0,0,0-1-1.37,4.64,4.64,0,0,1-2.39-2.23c-1-1.78-1.82-3.65-1.06-5.76.56-1.54.48-3.22,1.06-4.76a2.1,2.1,0,0,0-.09-1.41,1.62,1.62,0,0,1,.68-2c.62-.36,1.24-.07,1.85.66a53.26,53.26,0,0,1,4.21,5,11.6,11.6,0,0,1,2.21,5.41C27.29,12.07,27.33,12.46,28,12.33Zm-10-1.9a5,5,0,0,0,2.64,5.39,2.78,2.78,0,0,1,1.71,3c-.07.57.25,1.28,1,1.15s.53-.82.34-1.31a1.92,1.92,0,0,1,.83-2.57,4.92,4.92,0,0,0,2-5.51c-.89-3.75-3.39-6.51-6.09-9.1a.85.85,0,0,0-1.11-.08.81.81,0,0,0-.31,1,4.12,4.12,0,0,1-.06,2.23C18.5,6.53,17.73,8.37,17.93,10.43Z" transform="translate(-0.04 0)"/><path class="cls-6" d="M98.61,42.67a1.27,1.27,0,0,1-1.81.11,1.06,1.06,0,0,1-.48-1.34c.23-.72.52-1.41,1.4-1.41a20.92,20.92,0,0,0,4.39-.47,1.15,1.15,0,0,1,1.5,1c.07.35.12.71.18,1.06s-.17.81.3.92.53-.29.71-.55a8.82,8.82,0,0,1,2.54-2.07c1.59-1,3.26-.9,5-.84a2.08,2.08,0,0,1,2,2.1q0,1.26,0,2.52c0,1.12-.54,1.49-1.82,1.53-1,0-1.69-.2-1.7-1.43s-1.22-1.72-2.36-.88A7.3,7.3,0,0,0,105.37,47a2.09,2.09,0,0,1-1,1.64l-.24-.36.2-1.09a.84.84,0,0,0,.45-1,23,23,0,0,1,2-2.84c.51-.07.82-.48,1.21-.74a3.14,3.14,0,0,1,2.52-.48c.87.19.8,1,1,1.61a1,1,0,0,0,1.17.78.94.94,0,0,0,1-.89,17.52,17.52,0,0,0,0-1.92c0-1.33-.57-2-1.9-2.12a7.85,7.85,0,0,0-6.49,2.73c-.44.48-.78,1.38-1.5,1.17s-.37-1.11-.41-1.71c-.08-1.31-.38-1.61-1.72-1.51-1.07.07-2.15.16-3.22.28-.41,0-.92,0-1,.64-.41.31-.3.65-.06,1C97.53,42.9,98.21,42.42,98.61,42.67Z" transform="translate(-0.04 0)"/><path class="cls-8" d="M241.84,62.28c-.28.69-.9.72-1.5.72-4.35,0-8.7,0-13.05,0-1.19,0-1.34-.7-1.34-1.65q0-11,0-22c0-2.15,0-4.31,0-6.47,0-1.86.38-2.26,2.23-2.23.81,0,1.6.05,2.11-.75.54.68-.05.94-.49,1.14a2.75,2.75,0,0,1-2,.14c-.85-.26-1.29.15-1.37,1,0,.2,0,.4,0,.6,0,9.46,0,18.92,0,28.38,0,1.09.22,1.29,1.43,1.25,4.15-.16,8.3-.09,12.45,0C240.85,62.38,241.34,62.25,241.84,62.28Z" transform="translate(-0.04 0)"/><path class="cls-8" d="M133.82,43.58A9.27,9.27,0,0,0,129.05,40c-.2-.29-.48-.24-.76-.15l-.21-.08v-.54c1.69-.47,3,.57,4,1.47,3.28,2.7,4.16,6.5,4.32,10.54.05,1-.68,1.45-1.54,1.44-5.15-.07-10.3.24-15.44-.16-.73-.06-1.07.2-1,.93.1,1.64-.2,3.34.9,4.83a1.68,1.68,0,0,1,.23,1.49,2.48,2.48,0,0,1-.37-.43c-1-1.62-1.11-3.47-1.38-5.28s0-2.08,1.74-2.07h14.62c1.42,0,1.84-.51,1.62-1.92-.19-1.18-.32-2.37-.55-3.54A4.65,4.65,0,0,0,133.82,43.58Z" transform="translate(-0.04 0)"/><path class="cls-15" d="M251.53,28.24A2.39,2.39,0,0,1,254,30.79a2.73,2.73,0,0,1-2.71,2.61c-1.22,0-2.84-1.56-2.65-2.74A2.57,2.57,0,0,1,251.53,28.24Z" transform="translate(-0.04 0)"/><path class="cls-10" d="M98.61,42.67c-.4-.25-1.08.23-1.28-.5l1.56,0c1.35,0,2,.51,2,1.9q.06,9,0,18c0,1.21-.61,1.77-1.83,1.91-.46.06-1.09,0-1,.7s.69.53,1.15.54c2,0,3.92,0,5.87,0,.43,0,.91.07,1.14-.45s-.34-.65-.47-1c.73-.44,1,.1,1.16.62a.88.88,0,0,1-.69,1.19,8.36,8.36,0,0,1-1.66.08c-1.88,0-3.75,0-5.62,0-.77,0-1.67,0-1.7-1s.79-1.13,1.61-1.13a1.24,1.24,0,0,0,.42-.17.74.74,0,0,0,.8-.71,7.86,7.86,0,0,0,.1-1q0-8.65,0-17.31C100.18,43.27,99.91,42.47,98.61,42.67Z" transform="translate(-0.04 0)"/><path class="cls-11" d="M32.77,28.74c-2.28,0-4.55,0-6.83,0-.53,0-1.24-.07-1.25.75s.67.65,1.16.72.79.08,1.19.12a.37.37,0,0,0,.49.22l.5.48a.38.38,0,0,0,.21.5l0,24.34c0,1.87,0,3.75,0,5.63a1.78,1.78,0,0,1-1.5,2.09v-.39c.15-.16.31-.32.46-.49A.56.56,0,0,0,27.7,62c0-.37,0-.74,0-1.12s.08-1,.08-1.43q0-11.39,0-22.78c0-1.31,0-2.63-.06-4-.12-1.51-.43-1.82-1.88-1.85-.31,0-.63,0-.95,0a.42.42,0,0,0-.48-.23c-.09-.15-.18-.3-.28-.45V28.89l.28-.45a.44.44,0,0,0,.48-.24c2.59,0,5.17,0,7.76,0,.6,0,1.26,0,1.18.93C33.42,29.13,33.22,28.55,32.77,28.74Z" transform="translate(-0.04 0)"/><path class="cls-8" d="M52.74,43.1a.71.71,0,0,1-.08.18,1,1,0,0,0-.47,1.34l-.24.82a1.84,1.84,0,0,0-.9,1.73l-.12.67a.41.41,0,0,0-.3.59c0,.31-.52.55-.1.9l-.27.94c-.27.47-.54.94-.8,1.41-.41.21-.38.53-.23.88,0,.19-.06.35-.27.41l-.24-.51a24.54,24.54,0,0,1,1.61-4.79c.47-1.38,1-2.76,1.45-4.13s1-2.92,1.6-4.33c.42-1,.65-2,1-3a30.61,30.61,0,0,0,1.49-4.12c.26-1.14.88-2.18,1.18-3.34.18-.7.94-.77,1.61-.77h7c1,0,1.63.35,1.68,1.42a1.79,1.79,0,0,1-1.73,1.9c-.61,0-1.16-.33-1.77-.16l-.31,0c.54-.69,1.31-.39,2-.46s1.14-.4,1.1-1.13-.37-1.22-1.24-.95H65a50.8,50.8,0,0,0-6.41-.12c-.7,0-1.06.52-1.27,1.1-.44,1.19-.91,2.38-1.23,3.6-.21.79-.89,1.44-.68,2.34,0,.21-.11.41-.16.61a2.08,2.08,0,0,0-.71,1.83c-.09.27-.17.54-.26.81a1.12,1.12,0,0,0-.45,1.35l-.25.57A3.39,3.39,0,0,0,52.74,43.1Z" transform="translate(-0.04 0)"/><path class="cls-10" d="M133.82,43.58a4.65,4.65,0,0,1,1.43,2.91c.23,1.17.36,2.36.55,3.54.22,1.41-.2,1.92-1.62,1.92H119.56c-1.73,0-2,.36-1.74,2.07s.39,3.66,1.38,5.28a2.48,2.48,0,0,0,.37.43c.11.14.22.28.34.41l0,.51a3.46,3.46,0,0,1-1.77-2.53,23.41,23.41,0,0,1-1-4.77c-.11-1.22.26-1.78,1.47-2a5,5,0,0,1,1-.06c4.86.07,9.72-.16,14.58.11.94.06,1.18-.44,1.14-1.48A21.58,21.58,0,0,0,133.82,43.58Z" transform="translate(-0.04 0)"/><path class="cls-5" d="M35.19,20.26h2.65a7,7,0,0,0,4.25,1.23,1.15,1.15,0,0,1,1.32.95l0,.48a.79.79,0,0,0-.54.69c-1,.41-1.47,1.42-2.36,1.95a32.81,32.81,0,0,1-4.07,1.92l-1.61-.06c-.61-.84-1.71-.84-2.44-1.46a.46.46,0,0,0-.28-.42c-.48-.83-1.28-.37-1.93-.48s-1-.34-.88-.91.59-.56,1-.42c.61.19,1.09.11,1.34-.55l.25-.41a.56.56,0,0,0,.41-.58,2.45,2.45,0,0,0,1-1,.49.49,0,0,0,.55-.42.34.34,0,0,0,.18,0A2,2,0,0,0,35.19,20.26Zm.14,6.49c2.3,0,6.07-2.11,7.1-3.75.3-.47.23-.83-.36-.77A8.39,8.39,0,0,1,38,21.12a4.58,4.58,0,0,0-5.73,2.67c-.11.31-.29.66-.06.9A5.6,5.6,0,0,0,35.33,26.75Z" transform="translate(-0.04 0)"/><path class="cls-8" d="M123.49,39.63l-.18.18a1.21,1.21,0,0,0-1.22.43,9.16,9.16,0,0,0-5.79,4.49A4.16,4.16,0,0,0,115,48.39l-.1.45c-.36.18-.33.45-.17.74l-.19.19c-.32.08-.44.23-.16.5l.16.53a11,11,0,0,0,0,4.24c-.05.25-.1.51-.14.77-.25.2-.19.35.07.48l0,.38c-.12.32,0,.54.31.61l.15-.08c-.14.23-.11.41.14.53a3.31,3.31,0,0,0,.85,2.36,2.22,2.22,0,0,0,1.34,2.19c0,.44.59.57.53,1s-.51.28-.69,0a19.06,19.06,0,0,1-2.5-4.26c-1.38-3.37-1.07-6.82-.65-10.24a11.67,11.67,0,0,1,3.4-6.65c1.3-1.35,3-2,4.57-2.92a1.38,1.38,0,0,1,1.58-.09Z" transform="translate(-0.04 0)"/><path class="cls-10" d="M180.38,44.49c.43-1.36,1.57-2.11,2.58-3,.32-.28.81-.37.93-.86l1.27-.52c1.34-.14,2.57-.71,3.94-.81,5.14-.38,9.77,1.6,12,6.79a3.61,3.61,0,0,1,.14.81l-.44,0A9.83,9.83,0,0,0,197,41.65a11,11,0,0,0-6.54-1.85,12,12,0,0,0-7.56,2.42C182,42.94,181.54,44.11,180.38,44.49Z" transform="translate(-0.04 0)"/><path class="cls-8" d="M222,31.8c.35.37.2.83.2,1.25q0,14,0,27.89c0,.49.18,1.05-.32,1.45a11.82,11.82,0,0,1-.13-1.18q0-14.08,0-28.18C221.72,32.62,221.55,32.14,222,31.8Z" transform="translate(-0.04 0)"/><path class="cls-7" d="M27.71,32.72c0,1.32.06,2.64.06,4q0,11.4,0,22.78c0,.48-.05,1-.08,1.43-.52-.19-.38-.64-.38-1q0-13.06,0-26.13C27.31,33.35,27.17,32.9,27.71,32.72Z" transform="translate(-0.04 0)"/><path class="cls-7" d="M104.1,50.39c.62.25.45.79.42,1.24-.16,2.4-.24,4.8-.2,7.21,0,1.06.37,2.11,0,3.18-.08.23-.08.47-.38.52-.53-.37-.12-1-.45-1.47,0-.92,0-1.84,0-2.75a42.16,42.16,0,0,1,.15-5.84c.33-.09.57-.21.18-.53C103.92,51.43,103.65,50.84,104.1,50.39Z" transform="translate(-0.04 0)"/><path class="cls-7" d="M265.19,62.64c-.47-.3-.34-.78-.34-1.2,0-5.83,0-11.67,0-17.51,0-.54-.23-1.3.78-1.25a3.37,3.37,0,0,0-.28,1.63c0,5.64,0,11.28,0,16.92A2.63,2.63,0,0,1,265.19,62.64Z" transform="translate(-0.04 0)"/><path class="cls-7" d="M270.4,40.68c-.78-1-1.87-.67-2.87-.68-2.67,0-2.65,0-2.68-2.65a22.5,22.5,0,0,1,.29-4.26c.1-.56.05-1.21.69-1.54a23.33,23.33,0,0,0-.26,5.41v.36c-.07,2.17-.07,2.17,2.19,2.17a12,12,0,0,1,1.9,0C270.24,39.62,270.89,39.83,270.4,40.68Z" transform="translate(-0.04 0)"/><path class="cls-8" d="M128.57,63.49c-1.94.11-3.9.35-5.75-.51-.1-.77-1.17-.57-1.31-1.3a5.22,5.22,0,0,1,2,.73,7.37,7.37,0,0,0,5.77-.06c1.35-.49,2.46-1.4,3.81-1.83l.12.14c-.56.84-1.76.88-2.24,1.82l-.89.4A1.6,1.6,0,0,0,128.57,63.49Z" transform="translate(-0.04 0)"/><path class="cls-7" d="M272.05,33a2.55,2.55,0,0,0,1.91.49c.8,0,1.12-.47,1.2-1.2.36-3.14-.5-4.27-3.64-4.8-.3,0-.65.05-.88-.26a3.84,3.84,0,0,1,5,3.48v1.07c0,2-1.34,2.85-3.16,2.08C272.18,33.73,271.66,33.56,272.05,33Z" transform="translate(-0.04 0)"/><path class="cls-11" d="M36.16,36.84a4.66,4.66,0,0,0-.49-1.67,1.51,1.51,0,0,0-.52-1.2c-.11-.41-.21-.81-.31-1.21h.38c.5.24.4.84.7,1.2.15.52.12,1.11.57,1.51l.18.86a3.54,3.54,0,0,0,.78,1.78l.18.87a3.77,3.77,0,0,0,.71,1.7c0,.21,0,.43-.18.59s-.29-.18-.41-.3a1.86,1.86,0,0,0-.63-1.49l-.3-1.17A1.91,1.91,0,0,0,36.16,36.84Z" transform="translate(-0.04 0)"/><path class="cls-8" d="M245.43,58a2,2,0,0,0-2.37-.55c-.87.34-.66,1.15-.72,1.85-.08.89.31,1.83-.33,2.65a15.67,15.67,0,0,1-.12-3.93c0-.9.79-1.06,1.45-1.13s1.71-.29,2.26.61A.34.34,0,0,1,245.43,58Z" transform="translate(-0.04 0)"/><path class="cls-8" d="M219.28,28.22c-.49.43-1.17.77-.91,1.61s1,.76,1.67.8,1.29,0,1.64.69c-1-.12-2.06.14-3-.28a1.85,1.85,0,0,1-.72-2.35C218.17,28.1,218.6,27.72,219.28,28.22Z" transform="translate(-0.04 0)"/><path class="cls-16" d="M31.65,23.19c-.25.66-.73.74-1.34.55-.45-.14-.95-.17-1,.42s.35.81.88.91,1.45-.35,1.93.48c-.64,0-1.28,0-1.92,0a1.34,1.34,0,0,1-1.44-1.41c-.06-1.05.66-1,1.37-1Z" transform="translate(-0.04 0)"/><path class="cls-7" d="M46.61,59.78c-.07.27-.14.53-.22.79l-1.11.68-.23.07c-.06-.35-.12-.69-.19-1,.24-.36.12-.57-.29-.65l-.26-1.18.13-.28a4.43,4.43,0,0,1,1.17,2.22c.64-.61.23-1.9,1.41-2.14l.12.64-.3.22C46.51,59.25,46.42,59.47,46.61,59.78Z" transform="translate(-0.04 0)"/><path class="cls-11" d="M41.92,52.68c-.09-.24-.17-.47-.25-.71a1,1,0,0,0-.46-1,7.29,7.29,0,0,0-.57-1.88.87.87,0,0,0-.45-1c.05-.43-.42-.85,0-1.29.46.07.44.49.58.79a1.12,1.12,0,0,0,.48,1c0,.14,0,.28.08.43a.45.45,0,0,0,.23.6l.4,1.13a3.25,3.25,0,0,0,.49,1.44c0,.16.07.32.1.47h-.59Z" transform="translate(-0.04 0)"/><path class="cls-16" d="M43.41,22.45a1.15,1.15,0,0,0-1.32-.95,7,7,0,0,1-4.25-1.23.58.58,0,0,1,.85-.13,4.94,4.94,0,0,0,3.7.86,1.29,1.29,0,0,1,1.36,1.08C43.83,22.33,43.61,22.41,43.41,22.45Z" transform="translate(-0.04 0)"/><path class="cls-7" d="M268.24,27.24A11,11,0,0,0,263,29.93c-.09-.8.61-1.14,1.06-1.44C265.31,27.68,266.53,26.56,268.24,27.24Z" transform="translate(-0.04 0)"/><path class="cls-6" d="M285.52,39.23c.1-.06.2-.16.3-.16a5.37,5.37,0,0,1,3.59,2l-.08.09h-.26l-.42-.3c0-.38-.29-.47-.63-.46l-1-.34a.88.88,0,0,0-1.1-.52l-.36,0Z" transform="translate(-0.04 0)"/><path class="cls-8" d="M245.47,62.78a19.86,19.86,0,0,1,0-4.36c.83.87.26,1.93.37,2.9C245.89,61.79,246.19,62.45,245.47,62.78Z" transform="translate(-0.04 0)"/><path class="cls-11" d="M26.08,63.71c-.46,0-1-.08-1.24.48s.3.82.52,1.2c-1,.14-1.1,0-1.27-1.47l.29-.46c.28,0,.58.07.74-.27a1.67,1.67,0,0,1,1,.14C26.12,63.46,26.1,63.58,26.08,63.71Z" transform="translate(-0.04 0)"/><path class="cls-16" d="M36.41,27.49a32.81,32.81,0,0,0,4.07-1.92A4.47,4.47,0,0,1,36.41,27.49Z" transform="translate(-0.04 0)"/><path class="cls-6" d="M281.66,39.15a2.5,2.5,0,0,1,2.68,0l0,.3h-2.64Z" transform="translate(-0.04 0)"/><path class="cls-8" d="M126.72,39.43l-2.23.14-.29-.42a2.81,2.81,0,0,1,3,0Z" transform="translate(-0.04 0)"/><path class="cls-6" d="M277.37,40.44c1-.73,1.94-1.61,3.35-1.22v.32l-.37,0a1.05,1.05,0,0,0-1.33.57l-.23.06C278.28,40.1,277.85,40.39,277.37,40.44Z" transform="translate(-0.04 0)"/><path class="cls-11" d="M277.37,40.44c.48,0,.91-.34,1.42-.25l0,.28c-1.06.29-1.79,1.2-2.86,1.46-.1-.43.39-.55.47-.88l.24-.12a.45.45,0,0,0,.49-.38Z" transform="translate(-0.04 0)"/><path class="cls-7" d="M48.72,52.46,49,53v0l-.12.42-.32.93c-.47,0-.27.61-.61.74C47.45,54,48.42,53.33,48.72,52.46Z" transform="translate(-0.04 0)"/><path class="cls-16" d="M27,21.25c.82.76,1.61.46,2.4-.05-.09,1.1-.9,1.05-1.65,1C27.26,22.14,26.75,22,27,21.25Z" transform="translate(-0.04 0)"/><path class="cls-16" d="M32.36,26c.73.62,1.83.62,2.44,1.46C33.75,27.34,32.71,27.23,32.36,26Z" transform="translate(-0.04 0)"/><path class="cls-6" d="M291,43.9c-.06-.12-.12-.24-.19-.36l0-.7c1,.14,1,1,1.2,1.68l-.54-.21Z" transform="translate(-0.04 0)"/><path class="cls-7" d="M46.93,57.72a1.87,1.87,0,0,1,.89-2.2l.21.53-.23.45C47.16,56.66,47.38,57.43,46.93,57.72Z" transform="translate(-0.04 0)"/><path class="cls-11" d="M38.08,42.12c0-.17-.13-.42.18-.48s.39.29.53.49a2,2,0,0,0,.51,1.19c0,.18-.07.35-.1.53l-.51-.15-.14-.37A1.69,1.69,0,0,0,38.08,42.12Z" transform="translate(-0.04 0)"/><path class="cls-11" d="M44.44,58.17l-.13.28L43.82,58a.62.62,0,0,0-.07-.23,1.87,1.87,0,0,0-.64-1.48c0-.17.07-.34.1-.51l.5.11.14.39a1.92,1.92,0,0,0,.49,1.21Z" transform="translate(-0.04 0)"/><path class="cls-7" d="M42.21,52.68h.3c.56.62,1.21,1.2.87,2.17-.51-.49-.37-1.41-1.14-1.72l-.12.06Z" transform="translate(-0.04 0)"/><path class="cls-7" d="M179.46,36.82a5.9,5.9,0,0,0,2.36.24A1.41,1.41,0,0,1,179.46,36.82Z" transform="translate(-0.04 0)"/><path class="cls-10" d="M103.49,61.07c.33.43-.08,1.1.45,1.47l0,.38-.25.27c-.92-.52-.42-1.39-.54-2.11Z" transform="translate(-0.04 0)"/><path class="cls-10" d="M121.51,61.68c.14.73,1.21.53,1.31,1.3a2.38,2.38,0,0,1-2-1.36l.51,0Z" transform="translate(-0.04 0)"/><path class="cls-10" d="M104.1,50.39c-.45.45-.18,1-.29,1.56l-.34.09-.18-.86.06-.66a.4.4,0,0,0,.18-.54l.06-.42h.47A1.16,1.16,0,0,1,104.1,50.39Z" transform="translate(-0.04 0)"/><path class="cls-11" d="M34.19,31.33c-.09-.39-.19-.78-.28-1.17.08-.11.15-.22.23-.32.33,0,.31.28.39.48a2,2,0,0,0,.68,1.48c0,.18-.06.35-.1.53C34.55,32.23,34.68,31.49,34.19,31.33Z" transform="translate(-0.04 0)"/><path class="cls-8" d="M121.35,61.57l-.51,0-.16-.11a.77.77,0,0,0-.69-.72l-.12-.15c0-.17,0-.34,0-.51A2,2,0,0,1,121.35,61.57Z" transform="translate(-0.04 0)"/><path class="cls-7" d="M266.93,30.45a2.07,2.07,0,0,1,2.07-.73A2.41,2.41,0,0,1,266.93,30.45Z" transform="translate(-0.04 0)"/><path class="cls-11" d="M39,44.76l-.12-.48h.38l.27.2A2,2,0,0,0,40.26,46c0,.17.06.37-.13.49C39.4,46.12,39.55,45.23,39,44.76Z" transform="translate(-0.04 0)"/><path class="cls-9" d="M39,44.76c.51.47.36,1.36,1.09,1.69,0,.15-.07.3-.1.45A1.8,1.8,0,0,1,39,44.76Z" transform="translate(-0.04 0)"/><path class="cls-11" d="M46.93,57.72c.45-.29.23-1.06.87-1.22l.2.3c-.34.47-.22,1.22-.9,1.49C46.91,58.14,46.94,57.93,46.93,57.72Z" transform="translate(-0.04 0)"/><path class="cls-11" d="M42.24,53.12c.77.31.63,1.23,1.14,1.72,0,.16.06.32.08.47h-.37l-.28-.2a1.89,1.89,0,0,0-.65-1.48Z" transform="translate(-0.04 0)"/><path class="cls-8" d="M230.31,29.16a4.26,4.26,0,0,0-1.19-1C230.19,27.89,230.53,28.16,230.31,29.16Z" transform="translate(-0.04 0)"/><path class="cls-16" d="M39.29,2A5.43,5.43,0,0,1,38.55.37C39.7.53,39.45,1.3,39.29,2Z" transform="translate(-0.04 0)"/><path class="cls-9" d="M34.14,29.84c-.08.1-.15.21-.23.32-.54-.35-.75-1-1.14-1.42.45-.19.65.39,1,.35Z" transform="translate(-0.04 0)"/><path class="cls-7" d="M268.46,64.2l-.94-.94C268.46,63,268.69,63.26,268.46,64.2Z" transform="translate(-0.04 0)"/><path class="cls-7" d="M269.88,29.72a1.55,1.55,0,0,1,1.72.88A2.46,2.46,0,0,1,269.88,29.72Z" transform="translate(-0.04 0)"/><path class="cls-9" d="M34.19,31.33c.49.16.36.9.92,1,0,.14.07.29.11.43h-.38C34.37,32.4,34,32,34.19,31.33Z" transform="translate(-0.04 0)"/><path class="cls-16" d="M38.83,11.65A3.14,3.14,0,0,1,39.29,10C39.73,10.69,39.45,11.21,38.83,11.65Z" transform="translate(-0.04 0)"/><path class="cls-7" d="M38.34,40.68a3.77,3.77,0,0,1-.71-1.7C38.22,39.4,38.7,39.86,38.34,40.68Z" transform="translate(-0.04 0)"/><path class="cls-7" d="M37.45,38.11a3.54,3.54,0,0,1-.78-1.78A1.47,1.47,0,0,1,37.45,38.11Z" transform="translate(-0.04 0)"/><path class="cls-7" d="M40.26,46a2,2,0,0,1-.69-1.48C40,44.87,40.67,45.17,40.26,46Z" transform="translate(-0.04 0)"/><path class="cls-9" d="M290.8,42.84l0,.7c-.52-.11-1.09-.18-.59-.93C290.51,42.5,290.62,42.75,290.8,42.84Z" transform="translate(-0.04 0)"/><path class="cls-7" d="M35.21,31.8a2,2,0,0,1-.68-1.48C35,30.68,35.48,31.08,35.21,31.8Z" transform="translate(-0.04 0)"/><path class="cls-11" d="M48,56.05l-.21-.53.09-.44c.34-.13.14-.7.61-.74l.2.3-.32.92Z" transform="translate(-0.04 0)"/><path class="cls-10" d="M104.66,63.21l.17.47c-.57.26-.87-.11-1.17-.49l.25-.27Z" transform="translate(-0.04 0)"/><path class="cls-7" d="M42.41,52.2a3.25,3.25,0,0,1-.49-1.44A.94.94,0,0,1,42.41,52.2Z" transform="translate(-0.04 0)"/><path class="cls-16" d="M35.19,20.26a2,2,0,0,1-1.19.5C34.15,20,34.56,19.86,35.19,20.26Z" transform="translate(-0.04 0)"/><path class="cls-7" d="M36.49,35.47c-.45-.4-.42-1-.57-1.51C36.66,34.26,36.62,34.85,36.49,35.47Z" transform="translate(-0.04 0)"/><path class="cls-11" d="M291.46,44.31l.54.21h0a.47.47,0,0,0,.3.51l.09.46-.31,0A1.77,1.77,0,0,1,291.46,44.31Z" transform="translate(-0.04 0)"/><path class="cls-7" d="M269.68,42.62l.72-.74a.42.42,0,0,1,.06.7C270.24,42.83,270,43,269.68,42.62Z" transform="translate(-0.04 0)"/><path class="cls-7" d="M44.34,57.48a1.92,1.92,0,0,1-.49-1.21C44.43,56.51,44.69,56.87,44.34,57.48Z" transform="translate(-0.04 0)"/><path class="cls-7" d="M39.3,43.32a2,2,0,0,1-.51-1.19C39.39,42.34,39.65,42.7,39.3,43.32Z" transform="translate(-0.04 0)"/><path class="cls-11" d="M284.32,39.45l0-.3,1.18.08v.33l-.75.2-.45,0Z" transform="translate(-0.04 0)"/><path class="cls-8" d="M118.49,64c.39-.06.56.16.66.48a.6.6,0,0,1-1-.11C118,64.09,118.16,63.89,118.49,64Z" transform="translate(-0.04 0)"/><path class="cls-11" d="M126.72,39.43l.45-.28.91,0v.54C127.6,39.76,127.09,40,126.72,39.43Z" transform="translate(-0.04 0)"/><path class="cls-7" d="M28.47,10.67A2.26,2.26,0,0,1,28,11.88C27.6,11.26,27.93,10.93,28.47,10.67Z" transform="translate(-0.04 0)"/><path class="cls-7" d="M24.12,28.89v1.26Q23.16,29.52,24.12,28.89Z" transform="translate(-0.04 0)"/><path class="cls-9" d="M26.08,63.71c0-.13,0-.25.05-.38l.67-.1v.39C26.61,64.05,26.36,64,26.08,63.71Z" transform="translate(-0.04 0)"/><path class="cls-7" d="M28.71,18.36a1,1,0,0,1-.92,1C27.79,18.71,28.32,18.6,28.71,18.36Z" transform="translate(-0.04 0)"/><path class="cls-6" d="M290,42.06c-.33.07-.49-.23-.75-.34.18-.07.11-.17,0-.28v-.25l.08-.09C289.82,41.29,290.55,41.26,290,42.06Z" transform="translate(-0.04 0)"/><path class="cls-11" d="M124.2,39.15l.29.42a.74.74,0,0,1-1,.06l0-.43Z" transform="translate(-0.04 0)"/><path class="cls-11" d="M280.72,39.54v-.32l.94-.07,0,.3v.28l-.45,0Z" transform="translate(-0.04 0)"/><path class="cls-7" d="M41.21,48.6a1.12,1.12,0,0,1-.48-1C41.21,47.8,41.55,48,41.21,48.6Z" transform="translate(-0.04 0)"/><path class="cls-7" d="M265.83,31.55a1,1,0,0,1,.75-.92C266.55,31.11,266.46,31.55,265.83,31.55Z" transform="translate(-0.04 0)"/><path class="cls-16" d="M42.84,23.62a.79.79,0,0,1,.54-.69C43.76,23.59,43.23,23.55,42.84,23.62Z" transform="translate(-0.04 0)"/><path class="cls-7" d="M25.12,63.19c-.16.34-.46.28-.74.27C24.49,63,24.73,62.89,25.12,63.19Z" transform="translate(-0.04 0)"/><path class="cls-9" d="M39.3,44.28h-.38c-.35-.09-.38-.3-.23-.58l.51.15C39.23,44,39.27,44.14,39.3,44.28Z" transform="translate(-0.04 0)"/><path class="cls-9" d="M104.06,49.55h-.47c-.3-.27-.15-.4.15-.49h.39Z" transform="translate(-0.04 0)"/><path class="cls-16" d="M261.27,33.72c0,.24,0,.48,0,.73-.19,0-.37-.1-.38-.33S261,33.75,261.27,33.72Z" transform="translate(-0.04 0)"/><path class="cls-7" d="M43.09,55.32h.37c.31.09.39.28.25.57l-.5-.11Z" transform="translate(-0.04 0)"/><path class="cls-8" d="M221.31,63a.63.63,0,0,1-.86.23C220.63,62.7,221,62.76,221.31,63Z" transform="translate(-0.04 0)"/><path class="cls-16" d="M38.09,14.28c0-.27,0-.55.25-.72C38.68,14,38.6,14.19,38.09,14.28Z" transform="translate(-0.04 0)"/><path class="cls-7" d="M271.6,30.6a.53.53,0,0,1,.38.76C271.61,31.23,271.58,30.93,271.6,30.6Z" transform="translate(-0.04 0)"/><path class="cls-10" d="M104.13,49.06h-.39c.09-.29,0-.63.35-.83l.24.36Z" transform="translate(-0.04 0)"/><path class="cls-7" d="M27.7,62a.56.56,0,0,1-.44.74C27.27,62.41,27.3,62.1,27.7,62Z" transform="translate(-0.04 0)"/><path class="cls-6" d="M277.15,40.55a.45.45,0,0,1-.49.38C276.69,40.64,276.81,40.46,277.15,40.55Z" transform="translate(-0.04 0)"/><path class="cls-6" d="M292.3,45a.47.47,0,0,1-.3-.51C292.3,44.57,292.49,44.69,292.3,45Z" transform="translate(-0.04 0)"/><path class="cls-7" d="M24.4,30.6a.42.42,0,0,1,.48.23C24.5,31.2,24.44,30.91,24.4,30.6Z" transform="translate(-0.04 0)"/><path class="cls-16" d="M32.31,22.2a.56.56,0,0,1-.41.58C31.82,22.43,31.94,22.22,32.31,22.2Z" transform="translate(-0.04 0)"/><path class="cls-7" d="M266.56,63.27q-.24.33-.48,0C266.24,63,266.4,63,266.56,63.27Z" transform="translate(-0.04 0)"/><path class="cls-7" d="M24.88,28.2a.44.44,0,0,1-.48.24C24.43,28.1,24.52,27.87,24.88,28.2Z" transform="translate(-0.04 0)"/><path class="cls-16" d="M33.82,20.8a.49.49,0,0,1-.55.42A.41.41,0,0,1,33.82,20.8Z" transform="translate(-0.04 0)"/><path class="cls-7" d="M41.52,49.63a.45.45,0,0,1-.23-.6C41.57,49.15,41.7,49.33,41.52,49.63Z" transform="translate(-0.04 0)"/><path class="cls-10" d="M33.94,65.31c.26-1.13-.16-1.59-1.34-1.6a2.21,2.21,0,0,1-2.37-2.54c.3-4.75.08-9.51.13-14.26.05-3.52,0-7,0-10.55,0-1.31-.14-2.63-.2-3.94,0-.44,0-.92.55-1.06s.7.23,1,.56a3.94,3.94,0,0,1,.7,1.51,67.11,67.11,0,0,0,2.55,7.43l2.43,6.86c.86,2.39,1.72,4.79,2.57,7.18s1.65,4.65,2.48,7c.32.9.66,1.8,1,2.69a.77.77,0,0,0,.82.57c.93-.21,2.22.69,2.76-.66,1.5-3.77,2.79-7.61,4.11-11.45,1.11-3.23,2.37-6.41,3.54-9.63.82-2.28,1.61-4.58,2.39-6.88a3,3,0,0,1,.88-1.64c.21.34,0,.63-.15.9-1.41,4-2.89,7.89-4.25,11.86a9.34,9.34,0,0,0-1,3.39q-2.42,6.72-4.83,13.43a6.52,6.52,0,0,1-.52.92,8.59,8.59,0,0,1-3.74.21h0c-.2-.39-.42-.77-.58-1.17-1.09-2.74-2-5.54-3-8.32q-2.93-8.34-6-16.62A28.17,28.17,0,0,0,32,34.68l-.15-.52c0-.22-.05-.44-.07-.67a.55.55,0,0,0-.57-.49c-.3,0-.37.23-.33.5a.93.93,0,0,0,.11.76c0,1.35,0,2.71,0,4.06q0,11.85,0,23.7c-.13.14-.08.21.09.22a1.75,1.75,0,0,0,1.81,1c1.55,0,2,.67,1.51,2.15Z" transform="translate(-0.04 0)"/><path class="cls-10" d="M58,34.44a3.74,3.74,0,0,1,1-2.93c.45-.63,1-.51,1.17.27A3.61,3.61,0,0,1,60.33,33c-.44,7.29-.07,14.59-.18,21.89,0,2.07,0,4.15,0,6.22-.05,1.72-.52,2.44-1.56,2.62a.49.49,0,0,1-.54-.15c.12-.4.7-.23.81-.64l0-.06a2.76,2.76,0,0,0,.41-2.3,3.3,3.3,0,0,0,.22-1.76c-.23-6.38,0-12.76-.09-19.15a23.23,23.23,0,0,0,0-4.17c.49-.55,0-1.16.08-1.73l.16-.67c0-.26.2-.63-.22-.66s-.42.3-.43.61a.76.76,0,0,0-.47.73h0c-.13,0-.19.08-.16.22l-.07.49Z" transform="translate(-0.04 0)"/><path class="cls-8" d="M58,34.44h.27l.29,0c-.06,1.62-.86,3-1.33,4.54-.87,2.7-1.94,5.34-2.85,8-.36,1-.82,2-1.12,3.12-.1.36-.25.78-.72.87a9.34,9.34,0,0,1,1-3.39c1.36-4,2.84-7.9,4.25-11.86.1-.27.36-.56.15-.9Z" transform="translate(-0.04 0)"/><path class="cls-7" d="M58.54,34.46l-.29,0c0-.16,0-.33.07-.49l.16-.22h1c-.07.57.41,1.18-.08,1.73C58.89,35.29,59.19,34.47,58.54,34.46Z" transform="translate(-0.04 0)"/><path class="cls-7" d="M59.25,60.53a2.76,2.76,0,0,1-.41,2.3C58.89,62.05,58.25,61.15,59.25,60.53Z" transform="translate(-0.04 0)"/><path class="cls-8" d="M32,34.68a28.17,28.17,0,0,1,1.82,4.78q3.09,8.28,6,16.62c1,2.78,1.89,5.58,3,8.32.16.4.38.78.58,1.17-1.16-.13-1.21-1.21-1.44-1.94-.85-2.72-1.9-5.37-2.9-8-.81-2.14-1.48-4.34-2.24-6.5-.53-1.5-1.15-3-1.67-4.45-.82-2.31-1.58-4.64-2.38-7-.21-.6-.46-1.19-.69-1.78C32,35.5,31.65,35.11,32,34.68Z" transform="translate(-0.04 0)"/><path class="cls-7" d="M31,34.26a.93.93,0,0,1-.11-.76h.9c0,.23,0,.45.07.67Z" transform="translate(-0.04 0)"/><path class="cls-7" d="M31.14,62.24c-.17,0-.22-.08-.09-.22Z" transform="translate(-0.04 0)"/><path class="cls-16" d="M125.2,49.61c-2,0-3.92,0-5.88,0-.84,0-1.4-.31-1.18-1.2.93-3.59,2.9-6.72,7.35-6.83,3.27-.08,5.75,2,6.54,5.38.09.39.16.78.22,1.18.17,1.09-.15,1.45-1.29,1.45Z" transform="translate(-0.04 0)"/><path class="cls-9" d="M115,48.39a4.16,4.16,0,0,1,1.32-3.66A14.83,14.83,0,0,1,115,48.39Z" transform="translate(-0.04 0)"/><path class="cls-10" d="M130.93,62.48c.48-.94,1.68-1,2.24-1.82l.47,0A3.81,3.81,0,0,1,130.93,62.48Z" transform="translate(-0.04 0)"/><path class="cls-14" d="M134.06,60.34a.65.65,0,0,1,.85-.59c.35.09.43.47.39.79-.08.53.36,1.2-.39,1.56C134.55,61.55,135.37,60.44,134.06,60.34Z" transform="translate(-0.04 0)"/><path class="cls-9" d="M117.28,62.28a2.22,2.22,0,0,1-1.34-2.19A3.93,3.93,0,0,1,117.28,62.28Z" transform="translate(-0.04 0)"/><path class="cls-10" d="M133.15,64a2.59,2.59,0,0,1-2,1.1C131.54,64.22,132.38,64.18,133.15,64Z" transform="translate(-0.04 0)"/><path class="cls-10" d="M134.82,62.54a1.31,1.31,0,0,1-1.26,1.13A1.62,1.62,0,0,1,134.82,62.54Z" transform="translate(-0.04 0)"/><path class="cls-9" d="M128.57,63.49a1.6,1.6,0,0,1,1.47-.61C129.81,63.71,129.14,63.49,128.57,63.49Z" transform="translate(-0.04 0)"/><path class="cls-9" d="M122.09,40.24a1.21,1.21,0,0,1,1.22-.43A.85.85,0,0,1,122.09,40.24Z" transform="translate(-0.04 0)"/><path class="cls-10" d="M120,60.79a.77.77,0,0,1,.69.72C120.18,61.53,119.94,61.3,120,60.79Z" transform="translate(-0.04 0)"/><path class="cls-9" d="M114.37,55.81c0-.26.09-.52.14-.77.44.15.48.41.19.76Z" transform="translate(-0.04 0)"/><path class="cls-9" d="M114.71,49.58c-.16-.29-.19-.56.17-.74C115.29,49.19,115.2,49.43,114.71,49.58Z" transform="translate(-0.04 0)"/><path class="cls-9" d="M114.49,56.67c0-.13,0-.25,0-.38h.33c.34.06.45.2.16.48Z" transform="translate(-0.04 0)"/><path class="cls-9" d="M128.29,39.8c.28-.09.56-.14.76.15C128.76,40.11,128.44,40.44,128.29,39.8Z" transform="translate(-0.04 0)"/><path class="cls-11" d="M120.5,65.08c-.36.11-.56,0-.59-.38C120.24,64.63,120.41,64.78,120.5,65.08Z" transform="translate(-0.04 0)"/><path class="cls-9" d="M115.09,57.73c-.25-.12-.28-.3-.14-.53C115.28,57.3,115.5,57.43,115.09,57.73Z" transform="translate(-0.04 0)"/><path class="cls-11" d="M114.77,56.28h-.33c-.26-.13-.32-.28-.07-.48h.33C114.73,56,114.75,56.12,114.77,56.28Z" transform="translate(-0.04 0)"/><path class="cls-11" d="M114.49,56.67l.44.09c0,.17-.08.34-.13.52C114.44,57.21,114.37,57,114.49,56.67Z" transform="translate(-0.04 0)"/><path class="cls-9" d="M114.52,50.8c-.06-.18-.11-.36-.16-.53h.32C115,50.57,114.85,50.71,114.52,50.8Z" transform="translate(-0.04 0)"/><path class="cls-11" d="M114.68,50.28h-.32c-.28-.27-.16-.42.16-.5C114.57,49.94,114.63,50.11,114.68,50.28Z" transform="translate(-0.04 0)"/><path class="cls-9" d="M291.46,44.31a1.77,1.77,0,0,0,.62,1.21l.39,2.12c0,.47,0,.93.08,1.39s-.16,1.12.61,1.26v.46a1,1,0,0,0-.87.79c-5.21.21-10.42.2-15.63.18-1.84,0-2.06.23-1.92,2.08a10.76,10.76,0,0,1,.23,2.72c-.9-.83-1.34-4-.64-4.87a2.28,2.28,0,0,1,2-.61c4.87,0,9.74,0,14.6,0,1,0,1.48,0,1.18-1.28-.4-1.69.07-3.57-1.14-5.1a.64.64,0,0,1,.08-.78Z" transform="translate(-0.04 0)"/><path class="cls-11" d="M292.55,49c0-.46-.05-.92-.08-1.39h.68c0,.48,0,1,0,1.44Z" transform="translate(-0.04 0)"/><path class="cls-10" d="M292.55,49l.62.06v1.2C292.39,50.15,292.45,49.6,292.55,49Z" transform="translate(-0.04 0)"/><path class="cls-10" d="M292.29,51.54a1,1,0,0,1,.87-.79v.71Z" transform="translate(-0.04 0)"/><path class="cls-4" d="M20.31,23c0,.16,0,.33-.25.32s-.55-.08-.6-.4.18-.23.32-.24S20.24,22.72,20.31,23Z" transform="translate(-0.04 0)"/><path class="cls-4" d="M18.09,21.78c-.06,0-.13.1-.18.09a.14.14,0,0,1-.1-.24.19.19,0,0,1,.19,0C18.05,21.62,18.06,21.71,18.09,21.78Z" transform="translate(-0.04 0)"/><path class="cls-15" d="M253.05,51.73v10c0,1.73.18,1.94,1.88,2,.63,0,1.16.15,1.13.91s-.66.76-1.24.76c-2.12,0-4.23,0-6.35,0-.59,0-1.21,0-1.27-.76s.52-.86,1.13-.92c1.66-.16,1.92-.44,1.92-2.09,0-5.84,0-11.67,0-17.5,0-1.74-.42-2.06-2.2-2l-.47,0c-.52,0-1-.1-1.06-.72s.43-.85.93-.92c1.58-.2,3.18-.24,4.76-.46.89-.12.88.73.88,1.39V51.73Z" transform="translate(-0.04 0)"/><path class="cls-13" d="M79.84,65.69l-.45-.08c-.08-.3-.18-.54-.51-.18a9.69,9.69,0,0,1-7.29-6.7,17.41,17.41,0,0,1-.42-9.32,14.09,14.09,0,0,1,3.15-6.53,2.25,2.25,0,0,0,.24-.52,4.89,4.89,0,0,1,1.91-1.22c.52.39.47-.08.54-.36.39-.37.91-.32,1.37-.44a2.3,2.3,0,0,0,2.5-.62l.4-.12c.11.19.3.15.48.15a1.91,1.91,0,0,0,1.68,0l1,.08a3.06,3.06,0,0,0,2.66.55c.44.09.92.07,1.24.46,0,.77.43.84,1,.65l.34.19c.63,1.28,1.92,2,2.54,3.4a15.67,15.67,0,0,1,1.51,4.72,17.86,17.86,0,0,1-1,9.27,10.19,10.19,0,0,1-7.08,6.16A18.47,18.47,0,0,1,79.84,65.69Zm9.5-20.36a2.36,2.36,0,0,0-1.92-2.14l-.41-.3a1,1,0,0,0-1.26-.67l-1.11-.32a1.32,1.32,0,0,0-1.15-.51,8.44,8.44,0,0,0-7.88,3.27c-2.12,2.7-2.62,5.9-2.49,9.22s1.09,6.17,3.68,8.36a8.31,8.31,0,0,0,9.75,1C87.05,63,87.9,62.85,88,62l.48-.46c.54,0,.78-.19.73-.73l.46-.71a.55.55,0,0,0,.49-.73l.45-1.4a3.6,3.6,0,0,0,.65-3.33V51a3.24,3.24,0,0,0-.65-3.1l-.48-1.36c.17-.6-.23-.82-.66-1A.25.25,0,0,1,89.34,45.33Z" transform="translate(-0.04 0)"/><path class="cls-9" d="M87.05,40.39a3.06,3.06,0,0,1-2.66-.55l0-.3.88.08c.12.24.26.43.52.14A1.67,1.67,0,0,1,87.05,40.39Z" transform="translate(-0.04 0)"/><path class="cls-9" d="M80.88,39.72a2.3,2.3,0,0,1-2.5.62l.19-.22a1.46,1.46,0,0,0,1.32-.49C80.23,39.55,80.57,39.44,80.88,39.72Z" transform="translate(-0.04 0)"/><path class="cls-9" d="M83.44,39.76a1.91,1.91,0,0,1-1.68,0v-.28h1.68Z" transform="translate(-0.04 0)"/><path class="cls-9" d="M89.32,41.5c-.6.19-1,.12-1-.65A1,1,0,0,1,89.32,41.5Z" transform="translate(-0.04 0)"/><path class="cls-10" d="M79.89,39.63a1.46,1.46,0,0,1-1.32.49A1.18,1.18,0,0,1,79.89,39.63Z" transform="translate(-0.04 0)"/><path class="cls-10" d="M83.44,39.76v-.29c.35-.32.66,0,1,.07,0,.1,0,.2,0,.3Z" transform="translate(-0.04 0)"/><path class="cls-9" d="M77,40.78c-.07.28,0,.75-.54.36C76.5,40.79,76.68,40.66,77,40.78Z" transform="translate(-0.04 0)"/><path class="cls-10" d="M85.83,39.76c-.26.29-.4.1-.52-.14C85.53,39.51,85.71,39.52,85.83,39.76Z" transform="translate(-0.04 0)"/><path class="cls-10" d="M81.76,39.47v.28c-.18,0-.37,0-.48-.15C81.37,39.29,81.53,39.26,81.76,39.47Z" transform="translate(-0.04 0)"/><path class="cls-9" d="M290.53,61c.07.33-.13.51-.37.68-3,2.22-6.34,3.16-10,1.85-1-.35-2.19-.78-2.56-2.06,1.28.61,2.33,1.64,3.79,1.93a10.17,10.17,0,0,0,7.66-1.59A4,4,0,0,1,290.53,61Z" transform="translate(-0.04 0)"/><path class="cls-9" d="M291.31,63c0-.61.57-1,.48-1.73s-.28-.74-.78-.74a.71.71,0,0,1,.95-.47c.42.15.36.57.35.92C292.29,61.85,292.36,62.72,291.31,63Z" transform="translate(-0.04 0)"/><path class="cls-9" d="M277.16,61.05a1.66,1.66,0,0,1-1.34-2A8.7,8.7,0,0,1,277.16,61.05Z" transform="translate(-0.04 0)"/><path class="cls-9" d="M275.74,58.87c-1-.33-1-1-.69-1.88A5.75,5.75,0,0,1,275.74,58.87Z" transform="translate(-0.04 0)"/><path class="cls-9" d="M290.11,64c.07-.62.35-1,1.05-.84A1.34,1.34,0,0,1,290.11,64Z" transform="translate(-0.04 0)"/><path class="cls-10" d="M65.37,28.54c.87-.27,1.19.23,1.24.95s-.41,1.06-1.1,1.13-1.46-.23-2,.46c-.6.52-.46,1.23-.46,1.9V61.87a5.56,5.56,0,0,1-.08.7c-.64-.29-.6-.88-.6-1.43q0-14.2,0-28.4c0-1.75.81-2.58,2.4-2.57.47,0,1,.14,1.28-.4S65.58,29,65.37,28.54Z" transform="translate(-0.04 0)"/><path class="cls-10" d="M56.86,63.58c-.22.38-.79.66-.48,1.22s.83.36,1.3.36c2.27,0,4.54-.06,6.81,0,1,0,1.6-.21,1.59-1.31.91.39.68.95.15,1.45a1.42,1.42,0,0,1-.89.27c-2.78,0-5.56,0-8.34,0-.76,0-1.22-.36-1.18-1.16S56.08,63.33,56.86,63.58Z" transform="translate(-0.04 0)"/><path class="cls-10" d="M64,63.48c-.32.27-.45.13-.5-.22C63.72,63.2,63.92,63.2,64,63.48Z" transform="translate(-0.04 0)"/><path class="cls-10" d="M66,63.81c-.29.16-.49,0-.61-.23C65.69,63.38,65.88,63.49,66,63.81Z" transform="translate(-0.04 0)"/><path class="cls-13" d="M180.38,44.49c1.16-.38,1.61-1.55,2.5-2.27a12,12,0,0,1,7.56-2.42A11,11,0,0,1,197,41.65a9.83,9.83,0,0,1,3.84,5.26,4.11,4.11,0,0,0,.83,2.66c0,.23,0,.47.07.71-.29.42-.3.79.22,1a3.33,3.33,0,0,1,0,2c-.56.38-.55.81-.11,1.29l0,.48c-.54,0-.45.44-.5.77a11,11,0,0,1-3.1,6.58.9.9,0,0,0-.28.75.22.22,0,0,1-.14.11A2.65,2.65,0,0,0,196,64.46h0a2.13,2.13,0,0,0-.57.1,13,13,0,0,1-7.4,1.18l-.91-.12c-.08-.31-.18-.55-.5-.18-.41,0-.78-.36-1.22-.15L184,64.72c-.1-.4-.33-.56-.73-.44a1,1,0,0,0-.17-.1c0-.4-.2-.49-.55-.39l-.73-.72a6.48,6.48,0,0,0-2.31-3.21,2.74,2.74,0,0,1-.42-1.42,1.86,1.86,0,0,0-.61-2.22l-.11-.42c.22-.11.15-.3.15-.48.28-.34.29-.6-.2-.74a13.39,13.39,0,0,1,0-3.1.61.61,0,0,0,.09-1c0-.13.08-.27.13-.41a1.73,1.73,0,0,0,.7-2c-.11-1.1.91-1.86.89-2.94Zm4.87-1.36a.72.72,0,0,0-.74.25,12.36,12.36,0,0,0-2.79,4.33c-1.07,2.52-.95,5.1-.76,7.65a9.84,9.84,0,0,0,2.57,6,8.66,8.66,0,0,0,10.11,2.21c1-.45,2.25-.73,2.57-2.07a5.25,5.25,0,0,0,1.43-1.9c.42-.11.58-.35.44-.78l.51-1.84a.69.69,0,0,0,.53-.7c.09-1.07.23-2.13.24-3.2a7.26,7.26,0,0,0-.81-4.31L198.06,47c.17-.44,0-.68-.45-.77a.3.3,0,0,1-.08-.16,1.26,1.26,0,0,0-1-1.56.26.26,0,0,1-.1-.14c.11-.4,0-.57-.45-.53l-1.18-1c-.08-.45-.33-.61-.76-.45l-1.6-.53a3.29,3.29,0,0,0-3-.51C187.89,41.65,186.29,41.8,185.25,43.13Z" transform="translate(-0.04 0)"/><path class="cls-9" d="M197.89,63.19a.9.9,0,0,1,.28-.75,11,11,0,0,0,3.1-6.58c0-.33,0-.76.5-.77C201.6,58.33,200.62,61.18,197.89,63.19Z" transform="translate(-0.04 0)"/><path class="cls-9" d="M201.65,49.57a4.11,4.11,0,0,1-.83-2.66l.44,0c.15.48.29,1,.44,1.44-.27.27-.08.4.16.52,0,.22.07.43.1.65Z" transform="translate(-0.04 0)"/><path class="cls-9" d="M196,64.46a2.65,2.65,0,0,1,1.73-1.16A1.88,1.88,0,0,1,196,64.46Z" transform="translate(-0.04 0)"/><path class="cls-9" d="M201.82,54.61c-.44-.48-.45-.91.11-1.29A1,1,0,0,1,201.82,54.61Z" transform="translate(-0.04 0)"/><path class="cls-9" d="M201.94,51.32c-.52-.25-.51-.62-.22-1l.33.06C202.14,50.68,202.23,51,201.94,51.32Z" transform="translate(-0.04 0)"/><path class="cls-10" d="M202.05,50.34l-.33-.06c0-.24,0-.48-.07-.71l.31,0C202.12,49.79,202.26,50.05,202.05,50.34Z" transform="translate(-0.04 0)"/><path class="cls-10" d="M201.86,48.89c-.24-.12-.43-.25-.16-.52A.33.33,0,0,1,201.86,48.89Z" transform="translate(-0.04 0)"/><path class="cls-9" d="M179.47,59.86a6.48,6.48,0,0,1,2.31,3.21A5.28,5.28,0,0,1,179.47,59.86Z" transform="translate(-0.04 0)"/><path class="cls-10" d="M180.06,45.18c0,1.08-1,1.84-.89,2.94-.48.38-.21,1.18-.83,1.47C178.58,48,178.78,46.38,180.06,45.18Z" transform="translate(-0.04 0)"/><path class="cls-9" d="M178.44,56.22a1.86,1.86,0,0,1,.61,2.22A2.11,2.11,0,0,1,178.44,56.22Z" transform="translate(-0.04 0)"/><path class="cls-9" d="M178.34,49.59c.62-.29.35-1.09.83-1.47a1.73,1.73,0,0,1-.7,2A.46.46,0,0,1,178.34,49.59Z" transform="translate(-0.04 0)"/><path class="cls-10" d="M178.34,50.52a.61.61,0,0,1-.09,1C177.91,51.12,177.9,50.8,178.34,50.52Z" transform="translate(-0.04 0)"/><path class="cls-9" d="M178.28,54.58c.49.14.48.4.2.74h-.3A1.06,1.06,0,0,1,178.28,54.58Z" transform="translate(-0.04 0)"/><path class="cls-10" d="M183.23,64.28c.4-.12.63,0,.73.44C183.61,64.76,183.31,64.69,183.23,64.28Z" transform="translate(-0.04 0)"/><path class="cls-10" d="M178.18,55.32h.3c0,.18.07.37-.15.48C178,55.72,178,55.55,178.18,55.32Z" transform="translate(-0.04 0)"/><path class="cls-10" d="M182.51,63.79c.35-.1.57,0,.55.39C182.72,64.26,182.54,64.13,182.51,63.79Z" transform="translate(-0.04 0)"/><path class="cls-10" d="M275.47,42.39a1.11,1.11,0,0,1-.17.43,11.31,11.31,0,0,0-3,6.44,22.94,22.94,0,0,0,.28,8.9,10.34,10.34,0,0,0,3.76,5.69c.21.16.53.24.53.59a6.83,6.83,0,0,1-3.71-3.66c-2.47-4.64-2.29-9.52-.75-14.36C272.93,44.83,273.69,43.15,275.47,42.39Z" transform="translate(-0.04 0)"/><path class="cls-9" d="M277.44,64.66c.53-.33.62,0,.68.43C277.72,65.21,277.55,65,277.44,64.66Z" transform="translate(-0.04 0)"/><path class="cls-9" d="M78.88,65.43c.33-.36.43-.12.51.18A.42.42,0,0,1,78.88,65.43Z" transform="translate(-0.04 0)"/><path class="cls-12" d="M104.09,48.24c-.31.2-.26.54-.35.83-.3.09-.45.22-.15.49l-.06.42c-.26.12-.53.23-.18.54l-.06.66c-.55.24-.38.74-.38,1.15q0,3.87,0,7.74c0,.35-.11.73.21,1,.12.72-.38,1.59.54,2.11.3.38.6.75,1.17.49l.93,0c.13.35.69.5.47,1s-.71.45-1.14.45c-2,0-3.91,0-5.87,0-.46,0-1.09.11-1.15-.54s.56-.64,1-.7c1.22-.14,1.83-.7,1.83-1.91q0-9,0-18c0-1.39-.68-1.93-2-1.9l-1.56,0c-.24-.35-.35-.69.06-1a14.94,14.94,0,0,1,2.84-.27c2.49-.13,2.5-.15,2.63,2.33,0,.5.1,1,.62,1.19s.83-.28,1.11-.67a8,8,0,0,1,4.81-3.45c2.8-.69,3.59-.15,3.56,2.64,0,.39.23,1-.42,1.07s-.77-.43-.77-.94a1.68,1.68,0,0,0-1.4-1.59c-1.1-.35-3.11.71-3.64,1.85a23,23,0,0,0-2,2.84c-.42.21-.81.42-.45,1Z" transform="translate(-0.04 0)"/><path class="cls-9" d="M26.74,65.3a.43.43,0,0,1,.43-.34h5a.44.44,0,0,1,.43.34A16.42,16.42,0,0,1,26.74,65.3Z" transform="translate(-0.04 0)"/><path class="cls-9" d="M186.64,65.44c.32-.37.42-.13.5.18A.42.42,0,0,1,186.64,65.44Z" transform="translate(-0.04 0)"/><path class="cls-10" d="M55.44,35.46c-.21-.9.47-1.55.68-2.34.32-1.22.79-2.41,1.23-3.6.21-.58.57-1.1,1.27-1.1a50.8,50.8,0,0,1,6.41.12c-.25.45-.69.32-1.06.32-1.39,0-2.78,0-4.17,0s-2,.32-2.32,1.78-1.09,2.55-1.32,3.94A1,1,0,0,1,55.44,35.46Z" transform="translate(-0.04 0)"/><path class="cls-9" d="M50.93,47.84l.12-.67.44,0c-.06.84,0,1.76-1,2.19-.42-.35.15-.59.1-.9C50.91,48.33,51.05,48.15,50.93,47.84Z" transform="translate(-0.04 0)"/><path class="cls-9" d="M43.82,58l.49.46.26,1.18-.06.52C43.72,59.61,43.86,58.77,43.82,58Z" transform="translate(-0.04 0)"/><path class="cls-10" d="M52.74,43.1a3.39,3.39,0,0,1,.87-2.47A3.79,3.79,0,0,1,52.74,43.1Z" transform="translate(-0.04 0)"/><path class="cls-10" d="M51.49,47.14l-.44,0a1.84,1.84,0,0,1,.9-1.73C52.26,46.13,51.48,46.53,51.49,47.14Z" transform="translate(-0.04 0)"/><path class="cls-11" d="M45.28,61.25l1.11-.68c.25.53-.18.86-.38,1.25C45.7,61.72,45.33,61.69,45.28,61.25Z" transform="translate(-0.04 0)"/><path class="cls-9" d="M49.46,51.68c.26-.47.53-.94.8-1.41a1.28,1.28,0,0,1-.6,1.72A3.28,3.28,0,0,0,49.46,51.68Z" transform="translate(-0.04 0)"/><path class="cls-10" d="M54.57,37.9a2.08,2.08,0,0,1,.71-1.83C55.3,36.78,55.29,37.48,54.57,37.9Z" transform="translate(-0.04 0)"/><path class="cls-9" d="M42.16,53.64a1.89,1.89,0,0,1,.65,1.48C42.3,54.75,41.85,54.36,42.16,53.64Z" transform="translate(-0.04 0)"/><path class="cls-9" d="M45.28,61.25c0,.44.42.47.73.57,0,.45-.32.55-.64.35s-.77-.37-.32-.85Z" transform="translate(-0.04 0)"/><path class="cls-9" d="M37.12,39.48A1.86,1.86,0,0,1,37.75,41C37.26,40.59,36.81,40.2,37.12,39.48Z" transform="translate(-0.04 0)"/><path class="cls-9" d="M36.16,36.84a1.91,1.91,0,0,1,.66,1.47C36.3,38,35.85,37.57,36.16,36.84Z" transform="translate(-0.04 0)"/><path class="cls-9" d="M43.11,56.28a1.87,1.87,0,0,1,.64,1.48C43.25,57.39,42.81,57,43.11,56.28Z" transform="translate(-0.04 0)"/><path class="cls-9" d="M35.15,34a1.51,1.51,0,0,1,.52,1.2C35.07,35,35,34.51,35.15,34Z" transform="translate(-0.04 0)"/><path class="cls-9" d="M38.08,42.12a1.69,1.69,0,0,1,.47,1.21A.8.8,0,0,1,38.08,42.12Z" transform="translate(-0.04 0)"/><path class="cls-10" d="M53.86,40.06a1.12,1.12,0,0,1,.45-1.35A1.2,1.2,0,0,1,53.86,40.06Z" transform="translate(-0.04 0)"/><path class="cls-9" d="M48.72,54.64l-.2-.3c.1-.31.21-.62.32-.93l.25.22C49.57,54.19,49.11,54.4,48.72,54.64Z" transform="translate(-0.04 0)"/><path class="cls-10" d="M52.19,44.62a1,1,0,0,1,.47-1.34A1.42,1.42,0,0,1,52.19,44.62Z" transform="translate(-0.04 0)"/><path class="cls-9" d="M40.19,48.13a.87.87,0,0,1,.45,1C40.21,48.92,39.89,48.66,40.19,48.13Z" transform="translate(-0.04 0)"/><path class="cls-9" d="M41.21,51a1,1,0,0,1,.46,1C41.18,51.8,40.83,51.57,41.21,51Z" transform="translate(-0.04 0)"/><path class="cls-9" d="M48,56.05l.37-.49c0,.45.22,1-.4,1.24l-.2-.3Z" transform="translate(-0.04 0)"/><path class="cls-11" d="M49.46,51.68a3.28,3.28,0,0,1,.2.31l-.43.57C49.08,52.21,49.05,51.89,49.46,51.68Z" transform="translate(-0.04 0)"/><path class="cls-9" d="M46.84,59.11l.3-.22c.41.25.26.41-.09.54Z" transform="translate(-0.04 0)"/><path class="cls-11" d="M44.51,60.15l.06-.52c.41.08.53.29.29.65Z" transform="translate(-0.04 0)"/><path class="cls-11" d="M46.84,59.11l.21.32-.44.35C46.42,59.47,46.51,59.25,46.84,59.11Z" transform="translate(-0.04 0)"/><path class="cls-9" d="M27.53,30.58a.37.37,0,0,1-.49-.22C27.38,30,27.49,30.24,27.53,30.58Z" transform="translate(-0.04 0)"/><path class="cls-9" d="M42.21,52.68l-.09.5c-.35,0-.51-.17-.2-.5Z" transform="translate(-0.04 0)"/><path class="cls-9" d="M28.24,31.56a.38.38,0,0,1-.21-.5C28.37,31.11,28.57,31.22,28.24,31.56Z" transform="translate(-0.04 0)"/><path class="cls-8" d="M49.09,53.63l-.25-.22L49,53C49.19,53.17,49.07,53.41,49.09,53.63Z" transform="translate(-0.04 0)"/><path class="cls-15" d="M167.72,46.71q0,6.9,0,13.8c0,.51.1,1,.14,1.55a1.58,1.58,0,0,0,1.55,1.53c.36,0,.72,0,1.08.09.54.07,1.1.18,1.05.88s-.61.66-1.09.67h-8.4c-.49,0-1,0-1.09-.68s.53-.88,1.05-.85c2.19.15,2.79-.86,2.78-3.17,0-9.31,0-18.63,0-27.95,0-1.6-.38-2-1.95-2-2.4,0-4.8,0-7.2,0-2.23,0-2.85.64-2.87,2.87,0,.56,0,1.12,0,1.68.06.83-.23,1.29-1.14,1.27s-1.07-.47-1.06-1.23c0-1.64,0-3.28,0-4.92,0-1.4.19-1.61,1.57-1.61l18.24,0,9.83,0c1.43,0,1.62.18,1.62,1.57,0,1.68,0,3.35,0,5,0,.8-.27,1.24-1.12,1.16s-1.15-.46-1-1.29a6.57,6.57,0,0,0,0-2.5c-.29-1.37-.9-2-2.26-2-2.8-.05-5.6,0-8.4,0-1.17,0-1.38.84-1.38,1.83C167.73,37.2,167.72,42,167.72,46.71Z" transform="translate(-0.04 0)"/><path class="cls-14" d="M278.86,42.23l1.59-.62a9.41,9.41,0,0,1,5.1.24,5.72,5.72,0,0,1,3.08,2.92.48.48,0,0,0,.37.53,1.24,1.24,0,0,1,.1.2c0,.26,0,.53.24.7,0,.3.07.6.11.89a2.46,2.46,0,0,0,0,.47c.38,1.94.13,2.24-1.86,2.24-3.65,0-7.31,0-11,0a2.39,2.39,0,0,1-1.66-.49,4.05,4.05,0,0,1,.21-1.92,2.05,2.05,0,0,0,.69-1.48l.18-.62a.49.49,0,0,0,.35-.53,13.73,13.73,0,0,1,2-2.15A.51.51,0,0,0,278.86,42.23Zm3.76,7c1.79.1,3.59-.1,5.38.12.71.09,1.18-.21,1.1-1a8.62,8.62,0,0,0-1.41-3.9c-2.42-3.64-8.45-2.89-10.46.33-.71,1.14-1,2.43-1.63,3.55-.39.66.11,1.1.8,1C278.47,49.09,280.55,49.28,282.62,49.18Z" transform="translate(-0.04 0)"/><path class="cls-9" d="M275,49.32a2.39,2.39,0,0,0,1.66.49c3.65,0,7.31,0,11,0,2,0,2.24-.3,1.86-2.24a2.46,2.46,0,0,1,0-.47,2.74,2.74,0,0,1,.78,1.57,1,1,0,0,1-.69,1.33,3.71,3.71,0,0,1-1.41.25c-3.91,0-7.83,0-11.75,0C275.77,50.22,274.92,50.42,275,49.32Z" transform="translate(-0.04 0)"/><path class="cls-9" d="M285.55,41.85a9.41,9.41,0,0,0-5.1-.24A4.31,4.31,0,0,1,285.55,41.85Z" transform="translate(-0.04 0)"/><path class="cls-9" d="M284.77,39.76l.75-.2.36,0a1.12,1.12,0,0,0,1.1.52l1,.34c-.09.21.13.26.2.4l-.12.14C287,40.51,285.68,40.73,284.77,39.76Z" transform="translate(-0.04 0)"/><path class="cls-9" d="M280.72,39.54l.51.23a2.51,2.51,0,0,1-2.42.7l0-.28.23-.06a1.6,1.6,0,0,0,1.33-.57Z" transform="translate(-0.04 0)"/><path class="cls-9" d="M281.68,39.73v-.28h2.64v.28A3.75,3.75,0,0,1,281.68,39.73Z" transform="translate(-0.04 0)"/><path class="cls-9" d="M275.87,45.92a2.05,2.05,0,0,1-.69,1.48C274.76,46.6,275.45,46.32,275.87,45.92Z" transform="translate(-0.04 0)"/><path class="cls-9" d="M289.33,41.44c.07.11.14.21,0,.28-.53,0-1-.16-1.18-.74l.12-.14.42.06.42.3Z" transform="translate(-0.04 0)"/><path class="cls-9" d="M289.34,46.2c-.26-.17-.24-.44-.24-.7C289.63,45.58,289.68,45.82,289.34,46.2Z" transform="translate(-0.04 0)"/><path class="cls-9" d="M276.4,44.77a.49.49,0,0,1-.35.53C275.91,45,276.06,44.79,276.4,44.77Z" transform="translate(-0.04 0)"/><path class="cls-9" d="M289,45.3a.48.48,0,0,1-.37-.53C289,44.8,289.12,45,289,45.3Z" transform="translate(-0.04 0)"/><path class="cls-9" d="M278.86,42.23a.51.51,0,0,1-.51.39C278.35,42.27,278.5,42.12,278.86,42.23Z" transform="translate(-0.04 0)"/><path class="cls-12" d="M225.28,47.15V61.42c0,1.77.31,2.07,2.1,2.07h12.83c1.87,0,2.66-.73,2.8-2.63a17.35,17.35,0,0,0,0-2c0-.7.27-1.07.94-1.1s.85.45.85,1c0,1.83-.1,3.67.09,5.51.09.91-.69.89-1.36.89l-15.35,0c-2.64,0-5.28,0-7.92,0-.49,0-1.16.14-1.23-.6s.68-.68,1.13-.75c2.21-.39,2.48-.66,2.49-2.85q0-14,0-28.06c0-2.14-.46-2.59-2.57-2.73-.5,0-1.05,0-1.05-.68s.6-.63,1.06-.63c2.8,0,5.6,0,8.39,0,.48,0,1.08,0,1.11.61s-.63.7-1.13.69c-1.25,0-2.55-.19-3,1.42a4.63,4.63,0,0,0-.13,1.43c0,4.71,0,9.43,0,14.15Z" transform="translate(-0.04 0)"/><path class="cls-12" d="M264.17,52.75v8.87c0,1.65.68,2.3,2.35,2.31.2,0,.4,0,.59,0,.44,0,.84.14.82.66s-.43.61-.86.61c-1.6,0-3.19,0-4.79,0-1,0-2,0-3,0-.43,0-.84-.08-.86-.61s.36-.63.8-.67c2.59-.28,2.78-.5,2.78-3.09,0-5.59,0-11.19,0-16.78,0-1.72-.24-2-1.93-1.94-.32,0-.64,0-.95,0-.55,0-.76-.34-.74-.87a.72.72,0,0,1,.74-.77,6.05,6.05,0,0,1,.83.1c1.47.12,2-.41,2.05-1.9a38.3,38.3,0,0,1,.2-4.78,6.52,6.52,0,0,1,6.58-6,13.27,13.27,0,0,1,4.47.69,1.61,1.61,0,0,1,1.28,1.77c0,.6,0,1.2,0,1.8s-.42.87-1,.9-.92-.26-1-.91c-.24-2.78-2.79-4-5.39-2.63-2.13,1.11-2.68,3.08-2.91,5.18-.16,1.46,0,2.95-.06,4.43a1.23,1.23,0,0,0,1.2,1.36,12.85,12.85,0,0,0,3.22,0c.62-.05,1.22-.06,1.29.67s-.59.91-1.23.91h-3c-1,0-1.5.46-1.49,1.53C264.19,46.68,264.17,49.71,264.17,52.75Z" transform="translate(-0.04 0)"/><path class="cls-4" d="M11,33.79c-2.53-.46-5.09-.52-7.53-1.33-.26-.08-.58-.15-.62-.49s.32-.35.56-.45a17.42,17.42,0,0,0,3.68-2.41c1.55-1.2,3.07-2.46,5.19-2.71a5.3,5.3,0,0,1,4.34,1.05c1.4,1.16,1.25,1.07.68,2.85C16.23,33.55,13.44,33.26,11,33.79Z" transform="translate(-0.04 0)"/><path class="cls-4" d="M38.87,5.82c-.35,3.07-.41,6.1-1.82,8.81-1.06,2-2.63,3.54-5.11,3.51a3.25,3.25,0,0,0-2.71,1.67c-.14.19-.2.44-.33.63s-.54.78-.95.49,0-.69.23-1,.46-.55.7-.81a2,2,0,0,0,.05-2.87c-1.06-1.47-.57-4.68.76-6.5s3.35-3.29,5-4.94a10.41,10.41,0,0,0,2.47-3.16c.13-.29.22-.65.65-.58a.71.71,0,0,1,.55.7C38.56,3.17,38.72,4.55,38.87,5.82Z" transform="translate(-0.04 0)"/><path class="cls-5" d="M17.93,10.43c-.2-2.06.57-3.9,1-5.8A4.12,4.12,0,0,0,19,2.4a.81.81,0,0,1,.31-1,.85.85,0,0,1,1.11.08c2.7,2.59,5.2,5.35,6.09,9.1a4.92,4.92,0,0,1-2,5.51,1.92,1.92,0,0,0-.83,2.57c.19.49.57,1.16-.34,1.31s-1.12-.58-1-1.15a2.78,2.78,0,0,0-1.71-3A5,5,0,0,1,17.93,10.43Zm7.87,1.39c.43-1.48-.32-2.7-1-3.92a26,26,0,0,0-4.53-5.8c-.44-.44-.8-.29-.71.31C20,4.84,18.74,7,18.45,9.31c-.32,2.62.18,4.8,2.58,6.3,1.63,1,2,1,3.5-.29A3.32,3.32,0,0,0,25.8,11.82Z" transform="translate(-0.04 0)"/><path class="cls-9" d="M106.73,43.33c.53-1.14,2.54-2.2,3.64-1.85a1.68,1.68,0,0,1,1.4,1.59c0,.51.09,1,.77.94s.41-.68.42-1.07c0-2.79-.76-3.33-3.56-2.64a8,8,0,0,0-4.81,3.45c-.28.39-.52.89-1.11.67s-.59-.69-.62-1.19c-.13-2.48-.14-2.46-2.63-2.33a14.94,14.94,0,0,0-2.84.27c0-.62.56-.6,1-.64,1.07-.12,2.15-.21,3.22-.28,1.34-.1,1.64.2,1.72,1.51,0,.6-.33,1.5.41,1.71s1.06-.69,1.5-1.17a7.85,7.85,0,0,1,6.49-2.73c1.33.07,1.9.79,1.9,2.12a17.52,17.52,0,0,1,0,1.92.94.94,0,0,1-1,.89,1,1,0,0,1-1.17-.78c-.16-.65-.09-1.42-1-1.61a3.14,3.14,0,0,0-2.52.48C107.55,42.85,107.24,43.26,106.73,43.33Z" transform="translate(-0.04 0)"/><path class="cls-9" d="M104.29,47.15c-.36-.56,0-.77.45-1A.84.84,0,0,1,104.29,47.15Z" transform="translate(-0.04 0)"/><path class="cls-11" d="M50.93,47.84c.12.31,0,.49-.3.59A.41.41,0,0,1,50.93,47.84Z" transform="translate(-0.04 0)"/><path class="cls-4" d="M35.33,26.75a5.6,5.6,0,0,1-3.15-2.06c-.23-.24,0-.59.06-.9A4.58,4.58,0,0,1,38,21.12a8.39,8.39,0,0,0,4.1,1.11c.59-.06.66.3.36.77C41.4,24.64,37.63,26.76,35.33,26.75Z" transform="translate(-0.04 0)"/><path class="cls-9" d="M103.12,61.08c-.32-.28-.21-.66-.21-1q0-3.87,0-7.74c0-.41-.17-.91.38-1.15.06.29.12.58.17.86s.12.29.17.44a42.16,42.16,0,0,0-.15,5.84c0,.91,0,1.83,0,2.75Z" transform="translate(-0.04 0)"/><path class="cls-6" d="M103.63,52.48c0-.15-.11-.29-.17-.44l.35-.09C104.2,52.27,104,52.39,103.63,52.48Z" transform="translate(-0.04 0)"/><path class="cls-11" d="M287,40.1a1.12,1.12,0,0,1-1.1-.52A.88.88,0,0,1,287,40.1Z" transform="translate(-0.04 0)"/><path class="cls-11" d="M288.65,40.9l-.42-.06c-.07-.14-.29-.19-.2-.4C288.36,40.43,288.61,40.52,288.65,40.9Z" transform="translate(-0.04 0)"/><path class="cls-11" d="M289.33,41.44l-.26-.24h.26Z" transform="translate(-0.04 0)"/><path class="cls-11" d="M280.35,39.56a1.6,1.6,0,0,1-1.33.57A1.05,1.05,0,0,1,280.35,39.56Z" transform="translate(-0.04 0)"/><path class="cls-9" d="M103.35,50.52c-.35-.31-.08-.42.18-.54A.4.4,0,0,1,103.35,50.52Z" transform="translate(-0.04 0)"/><path class="cls-6" d="M31.82,33.49h-.9c0-.27,0-.49.33-.5A.55.55,0,0,1,31.82,33.49Z" transform="translate(-0.04 0)"/><path class="cls-8" d="M59.45,33.72h-1A.76.76,0,0,1,59,33l.65,0Z" transform="translate(-0.04 0)"/><path class="cls-11" d="M59.61,33.05,59,33c0-.31.12-.63.43-.61S59.65,32.79,59.61,33.05Z" transform="translate(-0.04 0)"/><path class="cls-8" d="M58.48,33.73l-.16.22C58.29,33.81,58.35,33.74,58.48,33.73Z" transform="translate(-0.04 0)"/><path class="cls-9" d="M88,62c-.06.86-.91,1-1.41,1.27a8.31,8.31,0,0,1-9.75-1c-2.59-2.19-3.54-5.11-3.68-8.36s.37-6.52,2.49-9.22a8.44,8.44,0,0,1,7.88-3.27,1.32,1.32,0,0,1,1.15.51,23.25,23.25,0,0,0-2.89,0c-1.41.18-2.92.26-3.89,1.57a8.3,8.3,0,0,0-2.68,3.17,2.58,2.58,0,0,0-.9,2.47l-.08.9c-.48.22-.32.68-.37,1.05a20.09,20.09,0,0,0,.22,5.58,8.62,8.62,0,0,0,7.83,7.16C84.17,63.91,86.05,63,88,62Z" transform="translate(-0.04 0)"/><path class="cls-6" d="M88,62c-1.91,1-3.79,1.92-6.08,1.78a8.62,8.62,0,0,1-7.83-7.16A20.09,20.09,0,0,1,73.83,51c0-.37-.11-.83.37-1.05a28.12,28.12,0,0,1,.3,5.94,7.48,7.48,0,0,0,1.68,4.23,7.22,7.22,0,0,0,6.54,2.94c4-.15,6.87-2.61,7.25-6.55.48-.09.45-.43.39-.78l0-.68h.44c.36,1-.51,1.9-.28,2.89l-.45,1.4c-.39.09-.49.38-.49.73l-.46.71a.88.88,0,0,0-.73.73Z" transform="translate(-0.04 0)"/><path class="cls-6" d="M77.86,43.44c1-1.31,2.48-1.39,3.89-1.57a23.25,23.25,0,0,1,2.89,0l1.11.32a1.66,1.66,0,0,0,1.26.67l.41.3,1.92,2.14a.25.25,0,0,0,.08.16,1,1,0,0,0,.66,1l.48,1.36a9.14,9.14,0,0,0,.65,3.1c0,1.22,0,2.43,0,3.65l-.33,0-.35,0,.13-1.41c.18-.12.12-.19,0-.24v-.5c.16,0,.22-.12,0-.24-.25-.29-.21-.67-.31-1A37.09,37.09,0,0,0,89.1,46.4c-1.71-3.88-7.27-5.18-10.23-3.07A.91.91,0,0,1,77.86,43.44Z" transform="translate(-0.04 0)"/><path class="cls-9" d="M90.89,54.6l.33,0A3.6,3.6,0,0,1,90.57,58c-.23-1,.64-1.88.28-2.89C90.86,54.91,90.87,54.76,90.89,54.6Z" transform="translate(-0.04 0)"/><path class="cls-9" d="M91.21,51a9.14,9.14,0,0,1-.65-3.1A3.24,3.24,0,0,1,91.21,51Z" transform="translate(-0.04 0)"/><path class="cls-9" d="M89.34,45.33l-1.92-2.14A2.36,2.36,0,0,1,89.34,45.33Z" transform="translate(-0.04 0)"/><path class="cls-9" d="M87,42.89a1.66,1.66,0,0,1-1.26-.67A1,1,0,0,1,87,42.89Z" transform="translate(-0.04 0)"/><path class="cls-9" d="M90.08,46.52a1,1,0,0,1-.66-1C89.85,45.7,90.25,45.92,90.08,46.52Z" transform="translate(-0.04 0)"/><path class="cls-9" d="M88.44,61.53a.88.88,0,0,1,.73-.73C89.22,61.34,89,61.58,88.44,61.53Z" transform="translate(-0.04 0)"/><path class="cls-9" d="M89.63,60.09c0-.35.1-.64.49-.73A.55.55,0,0,1,89.63,60.09Z" transform="translate(-0.04 0)"/><path class="cls-6" d="M196.39,44.38a.26.26,0,0,0,.1.14,3.37,3.37,0,0,0,1,1.56.3.3,0,0,0,.08.16.67.67,0,0,0,.45.77c.16.59.33,1.18.49,1.78a1.62,1.62,0,0,0-.07.57,16.58,16.58,0,0,1,.17,6.28c-.07.44-.45.9-.06,1.36l-.51,1.84a.68.68,0,0,0-.44.78,5.25,5.25,0,0,1-1.43,1.9c-.37,0-.54.3-.79.49a8.58,8.58,0,0,1-11.59-1,9.71,9.71,0,0,1-2.13-4.74,15.56,15.56,0,0,1,1.18-10c.59-1.23,1.76-1.92,2.37-3.09.75,0,1.3-.53,1.94-.8,1.71-.71,3.47-.42,5.21-.41l1.6.53a.68.68,0,0,0,.76.45c.4.31.79.63,1.18,1A.5.5,0,0,0,196.39,44.38Zm1.55,8.53a31.82,31.82,0,0,0,0-3.24,8.41,8.41,0,0,0-3.68-6.22c-1.58-1.13-3.35-.89-5.08-.87-3.69,0-6,3.27-6.6,6.13a23.11,23.11,0,0,0-.05,8.21,7.5,7.5,0,0,0,3.89,5.38A7.81,7.81,0,0,0,192,63a6.8,6.8,0,0,0,5.12-3.84C198.09,57.07,197.87,55,197.94,52.91Z" transform="translate(-0.04 0)"/><path class="cls-9" d="M185.25,43.13c-.61,1.17-1.78,1.86-2.37,3.09a15.56,15.56,0,0,0-1.18,10A9.71,9.71,0,0,0,183.83,61a8.58,8.58,0,0,0,11.59,1c.25-.19.42-.49.79-.49-.32,1.34-1.62,1.62-2.57,2.07a8.66,8.66,0,0,1-10.11-2.21,9.84,9.84,0,0,1-2.57-6c-.19-2.55-.31-5.13.76-7.65a12.36,12.36,0,0,1,2.79-4.33A.72.72,0,0,1,185.25,43.13Z" transform="translate(-0.04 0)"/><path class="cls-9" d="M198.59,57c-.39-.46,0-.92.06-1.36a16.58,16.58,0,0,0-.17-6.28,1.62,1.62,0,0,1,.07-.57,7.26,7.26,0,0,1,.81,4.31c0,1.07-.15,2.13-.24,3.2A.69.69,0,0,1,198.59,57Z" transform="translate(-0.04 0)"/><path class="cls-9" d="M192.4,41.92c-1.74,0-3.5-.3-5.21.41-.64.27-1.19.81-1.94.8,1-1.33,2.64-1.48,4.11-1.72A3.29,3.29,0,0,1,192.4,41.92Z" transform="translate(-0.04 0)"/><path class="cls-9" d="M197.53,46.08a3.37,3.37,0,0,1-1-1.56A1.26,1.26,0,0,1,197.53,46.08Z" transform="translate(-0.04 0)"/><path class="cls-9" d="M198.06,47a.67.67,0,0,1-.45-.77C198.06,46.33,198.23,46.57,198.06,47Z" transform="translate(-0.04 0)"/><path class="cls-9" d="M197.64,59.62a.68.68,0,0,1,.44-.78C198.22,59.27,198.06,59.51,197.64,59.62Z" transform="translate(-0.04 0)"/><path class="cls-9" d="M194.76,42.9a.68.68,0,0,1-.76-.45C194.43,42.29,194.68,42.45,194.76,42.9Z" transform="translate(-0.04 0)"/><path class="cls-9" d="M196.39,44.38a.5.5,0,0,1-.45-.53C196.35,43.81,196.5,44,196.39,44.38Z" transform="translate(-0.04 0)"/><path class="cls-2" d="M282.62,49.18c-2.07.1-4.15-.09-6.22.12-.69.06-1.19-.38-.8-1,.68-1.12.92-2.41,1.63-3.55,2-3.22,8-4,10.46-.33a8.62,8.62,0,0,1,1.41,3.9c.08.81-.39,1.11-1.1,1C286.21,49.08,284.41,49.28,282.62,49.18Z" transform="translate(-0.04 0)"/><path class="cls-4" d="M25.8,11.82a3.32,3.32,0,0,1-1.27,3.5c-1.46,1.25-1.87,1.31-3.5.29-2.4-1.5-2.9-3.68-2.58-6.3C18.74,7,20,4.84,19.58,2.41c-.09-.6.27-.75.71-.31a26,26,0,0,1,4.53,5.8C25.48,9.12,26.23,10.34,25.8,11.82Z" transform="translate(-0.04 0)"/><path class="cls-1" d="M77.86,43.44a.91.91,0,0,0,1-.11c3-2.11,8.52-.81,10.23,3.07a37.09,37.09,0,0,1,1.26,4.78c.1.34.06.72.31,1a2,2,0,0,0,0,.24v.5l0,.24c0,.47-.09.94-.13,1.41-.31.1-.46.23-.13.5,0,.23,0,.45,0,.68-.43.11-.44.43-.39.78-.38,3.94-3.24,6.4-7.25,6.55a7.22,7.22,0,0,1-6.54-2.94,7.48,7.48,0,0,1-1.68-4.23A28.12,28.12,0,0,0,74.2,50c0-.3.06-.6.08-.9.36-.8,1.43-1.35.9-2.47A8.3,8.3,0,0,1,77.86,43.44Z" transform="translate(-0.04 0)"/><path class="cls-6" d="M75.18,46.61c.53,1.12-.54,1.67-.9,2.47A2.58,2.58,0,0,1,75.18,46.61Z" transform="translate(-0.04 0)"/><path class="cls-7" d="M90.41,55.08c-.33-.27-.18-.4.13-.5l.35,0c0,.16,0,.31,0,.47Z" transform="translate(-0.04 0)"/><path class="cls-7" d="M90,56.54c0-.35,0-.67.39-.78C90.42,56.11,90.45,56.45,90,56.54Z" transform="translate(-0.04 0)"/><path class="cls-7" d="M90.67,53.17l0-.24C90.79,53,90.85,53.05,90.67,53.17Z" transform="translate(-0.04 0)"/><path class="cls-7" d="M90.63,52.43a2,2,0,0,1,0-.24C90.85,52.31,90.79,52.38,90.63,52.43Z" transform="translate(-0.04 0)"/><path class="cls-2" d="M197.94,52.91c-.07,2.08.15,4.16-.84,6.2A6.8,6.8,0,0,1,192,63a7.81,7.81,0,0,1-5.58-.65,7.5,7.5,0,0,1-3.89-5.38,23.11,23.11,0,0,1,.05-8.21c.57-2.86,2.91-6.1,6.6-6.13,1.73,0,3.5-.26,5.08.87a8.41,8.41,0,0,1,3.68,6.22A31.82,31.82,0,0,1,197.94,52.91Z" transform="translate(-0.04 0)"/></g></g></svg>